<svg width="107" height="106" viewBox="0 0 107 106" fill="none" xmlns="http://www.w3.org/2000/svg">
<g clip-path="url(#clip0_31_41131)">
<rect x="0.5" width="106" height="106" rx="53" fill="url(#paint0_diamond_31_41131)"/>
<rect x="8.68481" y="99.2036" width="122.131" height="250.519" transform="rotate(-135 8.68481 99.2036)" fill="url(#paint1_linear_31_41131)"/>
<path d="M82.4844 29.8128V43.7253C82.4844 44.6477 82.1179 45.5324 81.4657 46.1847C80.8134 46.837 79.9287 47.2034 79.0062 47.2034H65.0938C64.1713 47.2034 63.2866 46.837 62.6343 46.1847C61.9821 45.5324 61.6156 44.6477 61.6156 43.7253C61.6156 42.8028 61.9821 41.9182 62.6343 41.2659C63.2866 40.6136 64.1713 40.2472 65.0938 40.2472H70.6008L68.34 37.9864C64.2469 33.873 58.6884 31.5524 52.8855 31.5345H52.7609C47.0098 31.5219 41.485 33.7741 37.3818 37.8038C36.7222 38.4487 35.8335 38.8053 34.9111 38.7949C33.9886 38.7846 33.1081 38.4083 32.4631 37.7487C31.8182 37.0892 31.4617 36.2004 31.472 35.278C31.4823 34.3556 31.8587 33.475 32.5182 32.8301C37.9215 27.5243 45.1969 24.5598 52.7696 24.5782H52.9203C60.5599 24.599 67.8785 27.6526 73.2673 33.0677L75.5281 35.3198V29.8128C75.5281 28.8903 75.8946 28.0057 76.5468 27.3534C77.1991 26.7011 78.0838 26.3347 79.0062 26.3347C79.9287 26.3347 80.8134 26.7011 81.4657 27.3534C82.1179 28.0057 82.4844 28.8903 82.4844 29.8128ZM69.6182 68.1968C65.5128 72.2286 59.9845 74.481 54.2304 74.4661H54.1058C48.3029 74.4481 42.7444 72.1276 38.6513 68.0142L36.3992 65.7534H41.9062C42.8287 65.7534 43.7134 65.387 44.3657 64.7347C45.0179 64.0824 45.3844 63.1977 45.3844 62.2753C45.3844 61.3528 45.0179 60.4682 44.3657 59.8159C43.7134 59.1636 42.8287 58.7972 41.9062 58.7972H27.9937C27.0713 58.7972 26.1866 59.1636 25.5343 59.8159C24.8821 60.4682 24.5156 61.3528 24.5156 62.2753V76.1878C24.5156 77.1102 24.8821 77.9949 25.5343 78.6472C26.1866 79.2995 27.0713 79.6659 27.9937 79.6659C28.9162 79.6659 29.8009 79.2995 30.4532 78.6472C31.1054 77.9949 31.4719 77.1102 31.4719 76.1878V70.6808L33.7327 72.9415C39.1229 78.3534 46.4414 81.4038 54.0797 81.4224H54.242C61.8147 81.4407 69.0901 78.4762 74.4934 73.1705C74.82 72.8512 75.0804 72.4706 75.2599 72.0506C75.4395 71.6306 75.5345 71.1793 75.5396 70.7226C75.5447 70.2659 75.4598 69.8126 75.2898 69.3886C75.1197 68.9647 74.8678 68.5784 74.5485 68.2519C74.2291 67.9253 73.8486 67.6648 73.4285 67.4853C73.0085 67.3058 72.5573 67.2108 72.1005 67.2056C71.6438 67.2005 71.1905 67.2854 70.7666 67.4555C70.3427 67.6256 69.9564 67.8774 69.6298 68.1968H69.6182Z" fill="white"/>
</g>
<defs>
<radialGradient id="paint0_diamond_31_41131" cx="0" cy="0" r="1" gradientUnits="userSpaceOnUse" gradientTransform="translate(39.5216 45.8843) rotate(45) scale(85.0165 211.056)">
<stop stop-color="#099FC0"/>
<stop offset="1" stop-color="#8358FF"/>
</radialGradient>
<linearGradient id="paint1_linear_31_41131" x1="-15.6195" y1="65.5691" x2="200.74" y2="149.798" gradientUnits="userSpaceOnUse">
<stop stop-color="#099FC0"/>
<stop offset="1" stop-color="#8358FF"/>
</linearGradient>
<clipPath id="clip0_31_41131">
<rect x="0.5" width="106" height="106" rx="53" fill="white"/>
</clipPath>
</defs>
</svg>
