<svg width="106" height="106" viewBox="0 0 106 106" fill="none" xmlns="http://www.w3.org/2000/svg">
<g clip-path="url(#clip0_31_54053)">
<rect width="106" height="106" rx="53" fill="url(#paint0_diamond_31_54053)"/>
<rect x="8.18481" y="99.2036" width="122.131" height="250.519" transform="rotate(-135 8.18481 99.2036)" fill="url(#paint1_linear_31_54053)"/>
<path d="M73 43H33C31.9391 43 30.9217 43.4214 30.1716 44.1716C29.4214 44.9217 29 45.9391 29 47V71C29 72.0609 29.4214 73.0783 30.1716 73.8284C30.9217 74.5786 31.9391 75 33 75H73C74.0609 75 75.0783 74.5786 75.8284 73.8284C76.5786 73.0783 77 72.0609 77 71V47C77 45.9391 76.5786 44.9217 75.8284 44.1716C75.0783 43.4214 74.0609 43 73 43ZM73 71H33V47H73V71ZM33 37C33 36.4696 33.2107 35.9609 33.5858 35.5858C33.9609 35.2107 34.4696 35 35 35H71C71.5304 35 72.0391 35.2107 72.4142 35.5858C72.7893 35.9609 73 36.4696 73 37C73 37.5304 72.7893 38.0391 72.4142 38.4142C72.0391 38.7893 71.5304 39 71 39H35C34.4696 39 33.9609 38.7893 33.5858 38.4142C33.2107 38.0391 33 37.5304 33 37ZM37 29C37 28.4696 37.2107 27.9609 37.5858 27.5858C37.9609 27.2107 38.4696 27 39 27H67C67.5304 27 68.0391 27.2107 68.4142 27.5858C68.7893 27.9609 69 28.4696 69 29C69 29.5304 68.7893 30.0391 68.4142 30.4142C68.0391 30.7893 67.5304 31 67 31H39C38.4696 31 37.9609 30.7893 37.5858 30.4142C37.2107 30.0391 37 29.5304 37 29Z" fill="white"/>
<path fill-rule="evenodd" clip-rule="evenodd" d="M53.4168 65.6641L54.4731 62.4005C54.6878 61.7367 55.2116 61.2202 55.8778 61.0166L59.1572 60.008C59.6112 59.8694 59.6148 59.2289 59.1646 59.0829L55.8999 58.0265C55.2374 57.8119 54.7209 57.2879 54.516 56.6217L53.5088 53.3422C53.3701 52.8894 52.7297 52.8845 52.5837 53.336L51.5274 56.5997C51.3127 57.2622 50.7888 57.7787 50.1226 57.9836L46.8432 58.9909C46.3893 59.1308 46.3844 59.77 46.8359 59.916L50.1005 60.9724C50.763 61.1871 51.2796 61.7122 51.4844 62.3784L52.4917 65.6568C52.6303 66.1107 53.2707 66.1156 53.4168 65.6641Z" fill="white"/>
</g>
<defs>
<radialGradient id="paint0_diamond_31_54053" cx="0" cy="0" r="1" gradientUnits="userSpaceOnUse" gradientTransform="translate(39.0216 45.8843) rotate(45) scale(85.0165 211.056)">
<stop stop-color="#099FC0"/>
<stop offset="1" stop-color="#8358FF"/>
</radialGradient>
<linearGradient id="paint1_linear_31_54053" x1="-16.1195" y1="65.5691" x2="200.24" y2="149.798" gradientUnits="userSpaceOnUse">
<stop stop-color="#099FC0"/>
<stop offset="1" stop-color="#8358FF"/>
</linearGradient>
<clipPath id="clip0_31_54053">
<rect width="106" height="106" rx="53" fill="white"/>
</clipPath>
</defs>
</svg>
