<svg width="106" height="106" viewBox="0 0 106 106" fill="none" xmlns="http://www.w3.org/2000/svg">
<g clip-path="url(#clip0_31_47834)">
<rect width="106" height="106" rx="53" fill="url(#paint0_diamond_31_47834)"/>
<rect x="8.18481" y="99.2036" width="122.131" height="250.519" transform="rotate(-135 8.18481 99.2036)" fill="url(#paint1_linear_31_47834)"/>
<path d="M80.4699 56.2878C79.6661 55.6694 78.7306 55.2447 77.736 55.0466C76.7414 54.8485 75.7146 54.8825 74.7352 55.1458L63.4388 57.7431C63.7016 56.6329 63.7097 55.4776 63.4625 54.3637C63.2153 53.2499 62.7193 52.2065 62.0115 51.3117C61.3037 50.4169 60.4025 49.6939 59.3755 49.1969C58.3486 48.6999 57.2224 48.4418 56.0815 48.4419H42.5658C41.4307 48.439 40.3063 48.6611 39.2576 49.0954C38.2089 49.5296 37.2567 50.1673 36.4558 50.9717L30.3486 57.0816H22.6026C21.4569 57.0816 20.3581 57.5367 19.548 58.3469C18.7378 59.157 18.2827 60.2558 18.2827 61.4015V72.2011C18.2827 73.3468 18.7378 74.4456 19.548 75.2557C20.3581 76.0659 21.4569 76.521 22.6026 76.521H50.6817C50.8583 76.5211 51.0342 76.4993 51.2055 76.4562L68.4849 72.1363C68.5958 72.1097 68.7042 72.0736 68.8089 72.0283L79.3008 67.5627L79.4196 67.5087C80.4282 67.0047 81.2919 66.2522 81.9293 65.3222C82.5667 64.3921 82.9569 63.3151 83.063 62.1926C83.1692 61.0701 82.9878 59.9391 82.536 58.906C82.0842 57.873 81.3769 56.972 80.4807 56.2878H80.4699ZM29.0824 72.2011H22.6026V61.4015H29.0824V72.2011ZM77.5269 63.6181L67.2673 67.9866L50.4117 72.2011H33.4022V60.1352L39.5121 54.028C39.9118 53.6251 40.3876 53.3057 40.9118 53.0883C41.436 52.8709 41.9982 52.7599 42.5658 52.7617H56.0815C56.9408 52.7617 57.7649 53.1031 58.3725 53.7107C58.9801 54.3183 59.3214 55.1424 59.3214 56.0016C59.3214 56.8609 58.9801 57.685 58.3725 58.2926C57.7649 58.9002 56.9408 59.2415 56.0815 59.2415H48.5218C47.9489 59.2415 47.3995 59.4691 46.9945 59.8742C46.5894 60.2792 46.3618 60.8286 46.3618 61.4015C46.3618 61.9743 46.5894 62.5237 46.9945 62.9288C47.3995 63.3338 47.9489 63.5614 48.5218 63.5614H57.1615C57.3241 63.5609 57.4861 63.5428 57.6448 63.5074L75.7342 59.3468L75.8179 59.3252C76.3701 59.1719 76.9595 59.2283 77.4727 59.4834C77.9859 59.7385 78.3866 60.1744 78.5977 60.7072C78.8088 61.24 78.8154 61.8321 78.6162 62.3695C78.4171 62.9068 78.0262 63.3516 77.5188 63.6181H77.5269ZM59.9532 34.8505C59.7524 34.6499 59.5931 34.4117 59.4844 34.1495C59.3757 33.8873 59.3197 33.6062 59.3197 33.3224C59.3197 33.0385 59.3757 32.7574 59.4844 32.4952C59.5931 32.233 59.7524 31.9948 59.9532 31.7942L68.5929 23.1545C68.7935 22.9537 69.0317 22.7943 69.294 22.6856C69.5562 22.5769 69.8372 22.521 70.1211 22.521C70.4049 22.521 70.686 22.5769 70.9482 22.6856C71.2104 22.7943 71.4486 22.9537 71.6492 23.1545L80.289 31.7942C80.4896 31.9949 80.6488 32.2331 80.7574 32.4953C80.866 32.7575 80.9219 33.0386 80.9219 33.3224C80.9219 33.6062 80.866 33.8872 80.7574 34.1494C80.6488 34.4116 80.4896 34.6498 80.289 34.8505C80.0883 35.0512 79.85 35.2104 79.5878 35.319C79.3256 35.4276 79.0446 35.4835 78.7608 35.4835C78.477 35.4835 78.196 35.4276 77.9338 35.319C77.6716 35.2104 77.4333 35.0512 77.2327 34.8505L72.281 29.8962V46.2819C72.281 46.8548 72.0535 47.4042 71.6484 47.8093C71.2433 48.2143 70.6939 48.4419 70.1211 48.4419C69.5482 48.4419 68.9988 48.2143 68.5938 47.8093C68.1887 47.4042 67.9611 46.8548 67.9611 46.2819V29.8962L63.0095 34.8505C62.8089 35.0513 62.5707 35.2106 62.3085 35.3193C62.0463 35.428 61.7652 35.484 61.4814 35.484C61.1975 35.484 60.9164 35.428 60.6542 35.3193C60.392 35.2106 60.1538 35.0513 59.9532 34.8505Z" fill="white"/>
</g>
<defs>
<radialGradient id="paint0_diamond_31_47834" cx="0" cy="0" r="1" gradientUnits="userSpaceOnUse" gradientTransform="translate(39.0216 45.8843) rotate(45) scale(85.0165 211.056)">
<stop stop-color="#099FC0"/>
<stop offset="1" stop-color="#8358FF"/>
</radialGradient>
<linearGradient id="paint1_linear_31_47834" x1="-16.1195" y1="65.5691" x2="200.24" y2="149.798" gradientUnits="userSpaceOnUse">
<stop stop-color="#099FC0"/>
<stop offset="1" stop-color="#8358FF"/>
</linearGradient>
<clipPath id="clip0_31_47834">
<rect width="106" height="106" rx="53" fill="white"/>
</clipPath>
</defs>
</svg>
