<svg width="45" height="44" viewBox="0 0 45 44" fill="none" xmlns="http://www.w3.org/2000/svg">
<g id="cancel">
<mask id="mask0_6376_38873" style="mask-type:alpha" maskUnits="userSpaceOnUse" x="0" y="0" width="45" height="44">
<rect id="Bounding box" x="0.5" width="44" height="44" fill="#D9D9D9"/>
</mask>
<g mask="url(#mask0_6376_38873)">
<path id="cancel_2" d="M14.617 29.8832C14.9531 30.2193 15.3809 30.3873 15.9003 30.3873C16.4198 30.3873 16.8475 30.2193 17.1837 29.8832L22.5003 24.5665L27.8628 29.929C28.1989 30.2651 28.6194 30.4252 29.1242 30.4093C29.6277 30.3947 30.0475 30.2193 30.3837 29.8832C30.7198 29.5471 30.8878 29.1193 30.8878 28.5998C30.8878 28.0804 30.7198 27.6526 30.3837 27.3165L25.067 21.9998L30.4295 16.6373C30.7656 16.3012 30.9257 15.8808 30.9098 15.376C30.8952 14.8724 30.7198 14.4526 30.3837 14.1165C30.0475 13.7804 29.6198 13.6123 29.1003 13.6123C28.5809 13.6123 28.1531 13.7804 27.817 14.1165L22.5003 19.4332L17.1378 14.0707C16.8017 13.7346 16.3819 13.5738 15.8783 13.5885C15.3735 13.6044 14.9531 13.7804 14.617 14.1165C14.2809 14.4526 14.1128 14.8804 14.1128 15.3998C14.1128 15.9193 14.2809 16.3471 14.617 16.6832L19.9337 21.9998L14.5712 27.3623C14.235 27.6985 14.0749 28.1183 14.0908 28.6218C14.1055 29.1266 14.2809 29.5471 14.617 29.8832ZM22.5003 40.3332C19.9642 40.3332 17.5809 39.8516 15.3503 38.8885C13.1198 37.9266 11.1795 36.6207 9.52949 34.9707C7.87949 33.3207 6.57355 31.3804 5.61166 29.1498C4.64855 26.9193 4.16699 24.5359 4.16699 21.9998C4.16699 19.4637 4.64855 17.0804 5.61166 14.8498C6.57355 12.6193 7.87949 10.679 9.52949 9.029C11.1795 7.379 13.1198 6.07245 15.3503 5.10934C17.5809 4.14745 19.9642 3.6665 22.5003 3.6665C25.0364 3.6665 27.4198 4.14745 29.6503 5.10934C31.8809 6.07245 33.8212 7.379 35.4712 9.029C37.1212 10.679 38.4271 12.6193 39.389 14.8498C40.3521 17.0804 40.8337 19.4637 40.8337 21.9998C40.8337 24.5359 40.3521 26.9193 39.389 29.1498C38.4271 31.3804 37.1212 33.3207 35.4712 34.9707C33.8212 36.6207 31.8809 37.9266 29.6503 38.8885C27.4198 39.8516 25.0364 40.3332 22.5003 40.3332Z" fill="#2F3A61" fill-opacity="0.5"/>
</g>
</g>
</svg>
