<svg width="45" height="44" viewBox="0 0 45 44" fill="none" xmlns="http://www.w3.org/2000/svg">
<g id="cancel">
<mask id="mask0_5819_11420" style="mask-type:alpha" maskUnits="userSpaceOnUse" x="0" y="0" width="45" height="44">
<rect id="Bounding box" x="0.5" width="44" height="44" fill="#D9D9D9"/>
</mask>
<g mask="url(#mask0_5819_11420)">
<path id="cancel_2" d="M14.6167 29.8832C14.9529 30.2193 15.3806 30.3873 15.9001 30.3873C16.4195 30.3873 16.8473 30.2193 17.1834 29.8832L22.5001 24.5665L27.8626 29.929C28.1987 30.2651 28.6191 30.4252 29.1239 30.4093C29.6275 30.3947 30.0473 30.2193 30.3834 29.8832C30.7195 29.5471 30.8876 29.1193 30.8876 28.5998C30.8876 28.0804 30.7195 27.6526 30.3834 27.3165L25.0667 21.9998L30.4293 16.6373C30.7654 16.3012 30.9255 15.8808 30.9096 15.376C30.8949 14.8724 30.7195 14.4526 30.3834 14.1165C30.0473 13.7804 29.6195 13.6123 29.1001 13.6123C28.5806 13.6123 28.1529 13.7804 27.8167 14.1165L22.5001 19.4332L17.1376 14.0707C16.8015 13.7346 16.3816 13.5738 15.8781 13.5885C15.3733 13.6044 14.9529 13.7804 14.6167 14.1165C14.2806 14.4526 14.1126 14.8804 14.1126 15.3998C14.1126 15.9193 14.2806 16.3471 14.6167 16.6832L19.9334 21.9998L14.5709 27.3623C14.2348 27.6985 14.0747 28.1183 14.0906 28.6218C14.1052 29.1266 14.2806 29.5471 14.6167 29.8832ZM22.5001 40.3332C19.964 40.3332 17.5806 39.8516 15.3501 38.8885C13.1195 37.9266 11.1792 36.6207 9.52925 34.9707C7.87925 33.3207 6.5733 31.3804 5.61141 29.1498C4.6483 26.9193 4.16675 24.5359 4.16675 21.9998C4.16675 19.4637 4.6483 17.0804 5.61141 14.8498C6.5733 12.6193 7.87925 10.679 9.52925 9.029C11.1792 7.379 13.1195 6.07245 15.3501 5.10934C17.5806 4.14745 19.964 3.6665 22.5001 3.6665C25.0362 3.6665 27.4195 4.14745 29.6501 5.10934C31.8806 6.07245 33.8209 7.379 35.4709 9.029C37.1209 10.679 38.4269 12.6193 39.3887 14.8498C40.3519 17.0804 40.8334 19.4637 40.8334 21.9998C40.8334 24.5359 40.3519 26.9193 39.3887 29.1498C38.4269 31.3804 37.1209 33.3207 35.4709 34.9707C33.8209 36.6207 31.8806 37.9266 29.6501 38.8885C27.4195 39.8516 25.0362 40.3332 22.5001 40.3332Z" fill="white" fill-opacity="0.5"/>
</g>
</g>
</svg>
