<svg width="45" height="44" viewBox="0 0 45 44" fill="none" xmlns="http://www.w3.org/2000/svg">
<g id="check_circle">
<mask id="mask0_5819_11366" style="mask-type:alpha" maskUnits="userSpaceOnUse" x="0" y="0" width="45" height="44">
<rect id="Bounding box" x="0.5" width="44" height="44" fill="#D9D9D9"/>
</mask>
<g mask="url(#mask0_5819_11366)">
<rect id="Rectangle 4365" x="9.66675" y="12.8335" width="23.8333" height="20.1667" fill="white"/>
<path id="check_circle_2" d="M19.9334 25.2998L15.9459 21.3123C15.6098 20.9762 15.1973 20.8082 14.7084 20.8082C14.2195 20.8082 13.7917 20.9915 13.4251 21.3582C13.089 21.6943 12.9209 22.1221 12.9209 22.6415C12.9209 23.1609 13.089 23.5887 13.4251 23.9248L18.6501 29.1498C18.9862 29.4859 19.414 29.654 19.9334 29.654C20.4529 29.654 20.8806 29.4859 21.2167 29.1498L31.6209 18.7457C31.957 18.4096 32.1251 17.9971 32.1251 17.5082C32.1251 17.0193 31.9417 16.5915 31.5751 16.2248C31.239 15.8887 30.8112 15.7207 30.2917 15.7207C29.7723 15.7207 29.3445 15.8887 29.0084 16.2248L19.9334 25.2998ZM22.5001 40.3332C19.964 40.3332 17.5806 39.8516 15.3501 38.8885C13.1195 37.9266 11.1792 36.6207 9.52925 34.9707C7.87925 33.3207 6.5733 31.3804 5.61141 29.1498C4.6483 26.9193 4.16675 24.5359 4.16675 21.9998C4.16675 19.4637 4.6483 17.0804 5.61141 14.8498C6.5733 12.6193 7.87925 10.679 9.52925 9.029C11.1792 7.379 13.1195 6.07245 15.3501 5.10934C17.5806 4.14745 19.964 3.6665 22.5001 3.6665C25.0362 3.6665 27.4195 4.14745 29.6501 5.10934C31.8806 6.07245 33.8209 7.379 35.4709 9.029C37.1209 10.679 38.4269 12.6193 39.3887 14.8498C40.3519 17.0804 40.8334 19.4637 40.8334 21.9998C40.8334 24.5359 40.3519 26.9193 39.3887 29.1498C38.4269 31.3804 37.1209 33.3207 35.4709 34.9707C33.8209 36.6207 31.8806 37.9266 29.6501 38.8885C27.4195 39.8516 25.0362 40.3332 22.5001 40.3332Z" fill="url(#paint0_linear_5819_11366)"/>
</g>
</g>
<defs>
<linearGradient id="paint0_linear_5819_11366" x1="9.01969" y1="6.36258" x2="37.5981" y2="40.3332" gradientUnits="userSpaceOnUse">
<stop stop-color="#63FD49"/>
<stop offset="1" stop-color="#189802"/>
</linearGradient>
</defs>
</svg>
