<svg width="1440" height="9058" viewBox="0 0 1440 9058" fill="none" xmlns="http://www.w3.org/2000/svg">
<g clip-path="url(#clip0_1657_52122)">
<rect width="1440" height="9058" rx="38.9189" fill="url(#paint0_linear_1657_52122)"/>
<g filter="url(#filter0_d_1657_52122)">
<path d="M924.897 604.066C462.369 501.847 289.792 128.764 261.319 -45H-74V3326H1520V726.404C1514.35 728.216 1387.43 706.286 924.897 604.066Z" fill="url(#paint1_linear_1657_52122)"/>
<path d="M-59.7297 -30.7297H249.362C284.204 151.576 462.341 516.455 921.818 618C1153.13 669.12 1300.59 700.18 1390.98 718.241C1436.16 727.268 1467.16 733.064 1487.28 736.495C1494.85 737.786 1500.95 738.756 1505.73 739.439V3311.73H-59.7297V-30.7297Z" stroke="#222A39" stroke-width="28.5405"/>
</g>
<g filter="url(#filter1_d_1657_52122)">
<path d="M1470.5 3325.5C1470.5 816.5 100.5 1695.5 -16.2134 64L-192 3325.5H1470.5Z" fill="url(#paint2_linear_1657_52122)"/>
<path d="M-11.5583 242.782C32.965 551.401 129.673 757.914 254.06 917.832C364.84 1060.26 497.702 1165.57 632.662 1272.54C675.701 1306.65 718.953 1340.94 761.771 1376.65C939.366 1524.76 1112.5 1699.42 1241.55 1992.59C1369.77 2283.85 1454.92 2693.15 1456.21 3311.23H-176.94L-11.5583 242.782Z" stroke="#222A39" stroke-width="28.5405"/>
</g>
<g filter="url(#filter2_d_1657_52122)">
<path d="M521.103 3151.07C983.631 3048.85 1533.03 2298.95 1561.5 2125.18L1520 2502V5873H-74V3273.4C-68.3525 3275.22 58.5746 3253.29 521.103 3151.07Z" fill="url(#paint3_linear_1657_52122)"/>
<path d="M1535.5 2230.91C1517.07 2266.68 1492.88 2307.73 1463.93 2352.2C1400.77 2449.17 1314.53 2562.97 1214.7 2674.47C1114.9 2785.96 1001.28 2895.41 883.33 2983.52C765.525 3071.51 642.585 3138.83 524.182 3165C292.875 3216.12 145.406 3247.18 55.0172 3265.24C9.83533 3274.27 -21.1635 3280.06 -41.276 3283.49C-48.8489 3284.79 -54.9525 3285.76 -59.7297 3286.44V5858.73H1505.73V2502V2501.22L1505.81 2500.44L1535.5 2230.91Z" stroke="#222A39" stroke-opacity="0.61" stroke-width="28.5405"/>
</g>
<g filter="url(#filter3_d_1657_52122)">
<path d="M347.608 4063.64C-201.906 3231.97 -703.237 3397.52 -790.03 3244.07L-500.011 4368.22L513.953 7585.9L2382.95 6914.29L1503.84 4467.85C1498.89 4471.55 748.608 4670.53 347.608 4063.64Z" fill="url(#paint4_linear_1657_52122)"/>
<path d="M-486.287 4364.29L-763 3291.71C-757.414 3295.37 -751.484 3298.76 -745.254 3301.94C-720.814 3314.41 -690.791 3324.09 -656.795 3333.65C-641.974 3337.81 -626.307 3341.98 -609.826 3346.37C-550.056 3362.27 -479.587 3381.02 -400.021 3412.77C-197.988 3493.39 62.4673 3657.97 335.702 4071.5C539.23 4379.53 831.583 4482.95 1072.72 4508.91C1193.22 4521.88 1301.14 4515.55 1379.26 4505.76C1418.33 4500.86 1450 4495.08 1472.14 4490.4C1481.45 4488.43 1489.09 4486.64 1494.91 4485.19L2364.69 6905.69L523.101 7567.45L-486.287 4364.29Z" stroke="#222A39" stroke-opacity="0.61" stroke-width="28.5405"/>
</g>
<g filter="url(#filter4_d_1657_52122)">
<path d="M966.397 5352.88C503.869 5250.67 -45.5273 4500.76 -74 4327L-32.4992 4703.82V8074.82H1561.5V5475.22C1555.85 5477.03 1428.93 5455.1 966.397 5352.88Z" fill="url(#paint5_linear_1657_52122)"/>
<path d="M-47.9992 4432.73C-29.5658 4468.5 -5.38263 4509.55 23.5729 4554.01C86.7277 4650.99 172.974 4764.79 272.796 4876.29C372.604 4987.78 486.222 5097.23 604.17 5185.33C721.975 5273.33 844.915 5340.65 963.318 5366.82C1194.63 5417.94 1342.09 5449 1432.48 5467.06C1477.66 5476.09 1508.66 5481.88 1528.78 5485.31C1536.35 5486.61 1542.45 5487.57 1547.23 5488.26V8060.55H-18.2289V4703.82V4703.03L-18.3147 4702.26L-47.9992 4432.73Z" stroke="#222A39" stroke-opacity="0.61" stroke-width="28.5405"/>
</g>
<g filter="url(#filter5_d_1657_52122)">
<path d="M696.5 7336C922 6367.5 1426.53 6353.76 1455 6180L1557.5 7336L1685.5 10707H-213V8107.4C-207.353 8109.22 531.945 8042.75 696.5 7336Z" fill="url(#paint6_linear_1657_52122)"/>
<path d="M1543.25 7336.9L1445.58 6235.36C1442.06 6240.12 1438.22 6244.78 1434.1 6249.37C1416.13 6269.4 1392.22 6288.68 1364.71 6309.18C1352.72 6318.12 1339.96 6327.34 1326.55 6337.05C1277.92 6372.23 1220.62 6413.68 1159.33 6470.44C1003.7 6614.58 822.551 6857.55 710.398 7339.24C626.919 7697.77 397.393 7894.04 188.624 8000.13C84.3267 8053.14 -14.8877 8083.7 -88.3948 8100.92C-125.163 8109.53 -155.559 8114.81 -177.021 8117.89C-185.783 8119.15 -193.078 8120.04 -198.73 8120.64V10692.7H1670.68L1543.25 7336.9Z" stroke="#222A39" stroke-opacity="0.61" stroke-width="28.5405"/>
</g>
<g filter="url(#filter6_d_1657_52122)">
<path d="M895.945 8335.81C1933.25 8424.21 2191.18 9238.85 2371.48 9235.26L1313.66 9732.74L-1853.94 10906.2L-2775 7825.93L-284.368 7081.18C-283.365 7090.86 138.986 8271.3 895.945 8335.81Z" fill="url(#paint7_linear_1657_52122)"/>
<path d="M1308.13 9719.57L2329.59 9239.19C2316.21 9232.64 2302.93 9223.32 2289.68 9212.2C2262.34 9189.25 2232.74 9156.55 2199.87 9117.92C2185.61 9101.16 2170.66 9083.21 2154.91 9064.29C2097.59 8995.44 2029.59 8913.77 1945.06 8830.18C1730.11 8617.63 1409.26 8393.87 894.733 8350.03C509.228 8317.17 211.109 8000.75 10.385 7695.78C-90.2934 7542.81 -167.178 7391.64 -218.951 7278.15C-244.845 7221.38 -264.48 7173.99 -277.689 7140.45C-284.292 7123.68 -289.297 7110.35 -292.679 7101.02C-292.957 7100.25 -293.224 7099.51 -293.481 7098.8L-2757.24 7835.51L-1844.63 10887.5L1308.13 9719.57Z" stroke="#222A39" stroke-opacity="0.61" stroke-width="28.5405"/>
</g>
</g>
<defs>
<filter id="filter0_d_1657_52122" x="-274.432" y="-280.432" width="1994.86" height="3771.86" filterUnits="userSpaceOnUse" color-interpolation-filters="sRGB">
<feFlood flood-opacity="0" result="BackgroundImageFix"/>
<feColorMatrix in="SourceAlpha" type="matrix" values="0 0 0 0 0 0 0 0 0 0 0 0 0 0 0 0 0 0 127 0" result="hardAlpha"/>
<feOffset dy="-35"/>
<feGaussianBlur stdDeviation="100.216"/>
<feComposite in2="hardAlpha" operator="out"/>
<feColorMatrix type="matrix" values="0 0 0 0 0.239216 0 0 0 0 0.372549 0 0 0 0 0.968627 0 0 0 0.5 0"/>
<feBlend mode="normal" in2="BackgroundImageFix" result="effect1_dropShadow_1657_52122"/>
<feBlend mode="normal" in="SourceGraphic" in2="effect1_dropShadow_1657_52122" result="shape"/>
</filter>
<filter id="filter1_d_1657_52122" x="-392" y="-171" width="2062.5" height="3661.5" filterUnits="userSpaceOnUse" color-interpolation-filters="sRGB">
<feFlood flood-opacity="0" result="BackgroundImageFix"/>
<feColorMatrix in="SourceAlpha" type="matrix" values="0 0 0 0 0 0 0 0 0 0 0 0 0 0 0 0 0 0 127 0" result="hardAlpha"/>
<feOffset dy="-35"/>
<feGaussianBlur stdDeviation="100"/>
<feComposite in2="hardAlpha" operator="out"/>
<feColorMatrix type="matrix" values="0 0 0 0 0.239216 0 0 0 0 0.372549 0 0 0 0 0.968627 0 0 0 0.5 0"/>
<feBlend mode="normal" in2="BackgroundImageFix" result="effect1_dropShadow_1657_52122"/>
<feBlend mode="normal" in="SourceGraphic" in2="effect1_dropShadow_1657_52122" result="shape"/>
</filter>
<filter id="filter2_d_1657_52122" x="-274.432" y="1889.75" width="2036.36" height="4148.68" filterUnits="userSpaceOnUse" color-interpolation-filters="sRGB">
<feFlood flood-opacity="0" result="BackgroundImageFix"/>
<feColorMatrix in="SourceAlpha" type="matrix" values="0 0 0 0 0 0 0 0 0 0 0 0 0 0 0 0 0 0 127 0" result="hardAlpha"/>
<feOffset dy="-35"/>
<feGaussianBlur stdDeviation="100.216"/>
<feComposite in2="hardAlpha" operator="out"/>
<feColorMatrix type="matrix" values="0 0 0 0 0.239216 0 0 0 0 0.372549 0 0 0 0 0.968627 0 0 0 0.5 0"/>
<feBlend mode="normal" in2="BackgroundImageFix" result="effect1_dropShadow_1657_52122"/>
<feBlend mode="normal" in="SourceGraphic" in2="effect1_dropShadow_1657_52122" result="shape"/>
</filter>
<filter id="filter3_d_1657_52122" x="-990.462" y="3008.63" width="3573.84" height="4742.7" filterUnits="userSpaceOnUse" color-interpolation-filters="sRGB">
<feFlood flood-opacity="0" result="BackgroundImageFix"/>
<feColorMatrix in="SourceAlpha" type="matrix" values="0 0 0 0 0 0 0 0 0 0 0 0 0 0 0 0 0 0 127 0" result="hardAlpha"/>
<feOffset dy="-35"/>
<feGaussianBlur stdDeviation="100.216"/>
<feComposite in2="hardAlpha" operator="out"/>
<feColorMatrix type="matrix" values="0 0 0 0 0.239216 0 0 0 0 0.372549 0 0 0 0 0.968627 0 0 0 0.5 0"/>
<feBlend mode="normal" in2="BackgroundImageFix" result="effect1_dropShadow_1657_52122"/>
<feBlend mode="normal" in="SourceGraphic" in2="effect1_dropShadow_1657_52122" result="shape"/>
</filter>
<filter id="filter4_d_1657_52122" x="-274.432" y="4091.57" width="2036.36" height="4148.68" filterUnits="userSpaceOnUse" color-interpolation-filters="sRGB">
<feFlood flood-opacity="0" result="BackgroundImageFix"/>
<feColorMatrix in="SourceAlpha" type="matrix" values="0 0 0 0 0 0 0 0 0 0 0 0 0 0 0 0 0 0 127 0" result="hardAlpha"/>
<feOffset dy="-35"/>
<feGaussianBlur stdDeviation="100.216"/>
<feComposite in2="hardAlpha" operator="out"/>
<feColorMatrix type="matrix" values="0 0 0 0 0.239216 0 0 0 0 0.372549 0 0 0 0 0.968627 0 0 0 0.5 0"/>
<feBlend mode="normal" in2="BackgroundImageFix" result="effect1_dropShadow_1657_52122"/>
<feBlend mode="normal" in="SourceGraphic" in2="effect1_dropShadow_1657_52122" result="shape"/>
</filter>
<filter id="filter5_d_1657_52122" x="-413.432" y="5944.57" width="2299.36" height="4927.86" filterUnits="userSpaceOnUse" color-interpolation-filters="sRGB">
<feFlood flood-opacity="0" result="BackgroundImageFix"/>
<feColorMatrix in="SourceAlpha" type="matrix" values="0 0 0 0 0 0 0 0 0 0 0 0 0 0 0 0 0 0 127 0" result="hardAlpha"/>
<feOffset dy="-35"/>
<feGaussianBlur stdDeviation="100.216"/>
<feComposite in2="hardAlpha" operator="out"/>
<feColorMatrix type="matrix" values="0 0 0 0 0.239216 0 0 0 0 0.372549 0 0 0 0 0.968627 0 0 0 0.5 0"/>
<feBlend mode="normal" in2="BackgroundImageFix" result="effect1_dropShadow_1657_52122"/>
<feBlend mode="normal" in="SourceGraphic" in2="effect1_dropShadow_1657_52122" result="shape"/>
</filter>
<filter id="filter6_d_1657_52122" x="-2975.43" y="6845.74" width="5547.34" height="4225.86" filterUnits="userSpaceOnUse" color-interpolation-filters="sRGB">
<feFlood flood-opacity="0" result="BackgroundImageFix"/>
<feColorMatrix in="SourceAlpha" type="matrix" values="0 0 0 0 0 0 0 0 0 0 0 0 0 0 0 0 0 0 127 0" result="hardAlpha"/>
<feOffset dy="-35"/>
<feGaussianBlur stdDeviation="100.216"/>
<feComposite in2="hardAlpha" operator="out"/>
<feColorMatrix type="matrix" values="0 0 0 0 0.239216 0 0 0 0 0.372549 0 0 0 0 0.968627 0 0 0 0.5 0"/>
<feBlend mode="normal" in2="BackgroundImageFix" result="effect1_dropShadow_1657_52122"/>
<feBlend mode="normal" in="SourceGraphic" in2="effect1_dropShadow_1657_52122" result="shape"/>
</filter>
<linearGradient id="paint0_linear_1657_52122" x1="720" y1="0" x2="720" y2="9058" gradientUnits="userSpaceOnUse">
<stop stop-color="#1B2439"/>
<stop offset="1" stop-color="#202839"/>
</linearGradient>
<linearGradient id="paint1_linear_1657_52122" x1="105.307" y1="672.711" x2="1301.37" y2="531.34" gradientUnits="userSpaceOnUse">
<stop stop-color="#1B2439"/>
<stop offset="1" stop-color="#202839"/>
</linearGradient>
<linearGradient id="paint2_linear_1657_52122" x1="832.412" y1="1904.65" x2="5877.99" y2="1002.71" gradientUnits="userSpaceOnUse">
<stop stop-color="#1B2439"/>
<stop offset="1" stop-color="#202839"/>
</linearGradient>
<linearGradient id="paint3_linear_1657_52122" x1="90.0001" y1="3305" x2="1338.62" y2="4580.65" gradientUnits="userSpaceOnUse">
<stop stop-color="#1B2439"/>
<stop offset="1" stop-color="#202839"/>
</linearGradient>
<linearGradient id="paint4_linear_1657_52122" x1="92.9761" y1="4917.78" x2="1216.67" y2="4349.81" gradientUnits="userSpaceOnUse">
<stop stop-color="#1B2439"/>
<stop offset="1" stop-color="#202839"/>
</linearGradient>
<linearGradient id="paint5_linear_1657_52122" x1="1397.5" y1="5506.82" x2="148.878" y2="6782.47" gradientUnits="userSpaceOnUse">
<stop stop-color="#1B2439"/>
<stop offset="1" stop-color="#202839"/>
</linearGradient>
<linearGradient id="paint6_linear_1657_52122" x1="1201.69" y1="8053.71" x2="5.63362" y2="7912.34" gradientUnits="userSpaceOnUse">
<stop stop-color="#1B2439"/>
<stop offset="1" stop-color="#202839"/>
</linearGradient>
<linearGradient id="paint7_linear_1657_52122" x1="453.41" y1="9361.08" x2="266.381" y2="7355.97" gradientUnits="userSpaceOnUse">
<stop stop-color="#1B2439"/>
<stop offset="1" stop-color="#202839"/>
</linearGradient>
<clipPath id="clip0_1657_52122">
<rect width="1440" height="9058" rx="38.9189" fill="white"/>
</clipPath>
</defs>
</svg>
