<svg width="61" height="61" viewBox="0 0 61 61" fill="none" xmlns="http://www.w3.org/2000/svg">
<g filter="url(#filter0_d_254_67006)">
<rect x="13.2942" y="12.9766" width="34.5882" height="34.5882" rx="17.2941" fill="#3E4A5B" shape-rendering="crispEdges"/>
<path d="M30.5883 22.1641C28.985 22.1641 27.4176 22.6395 26.0845 23.5303C24.7514 24.421 23.7123 25.6871 23.0988 27.1684C22.4852 28.6497 22.3247 30.2797 22.6375 31.8522C22.9503 33.4247 23.7223 34.8692 24.8561 36.0029C25.9898 37.1367 27.4343 37.9087 29.0068 38.2215C30.5793 38.5343 32.2093 38.3738 33.6906 37.7602C35.1719 37.1466 36.4379 36.1076 37.3287 34.7745C38.2195 33.4413 38.6949 31.874 38.6949 30.2707C38.6926 28.1214 37.8377 26.0608 36.3179 24.541C34.7982 23.0213 32.7376 22.1664 30.5883 22.1641ZM30.5883 37.6161C30.0752 37.1224 28.7238 35.6373 28.0534 33.1891H33.1232C32.4528 35.6373 31.1015 37.1224 30.5883 37.6161ZM27.8985 32.5405C27.5937 31.0426 27.5937 29.4987 27.8985 28.0008H33.2781C33.5829 29.4987 33.5829 31.0426 33.2781 32.5405H27.8985ZM30.5883 22.9253C31.1015 23.419 32.4528 24.9041 33.1232 27.3523H28.0534C28.7238 24.9041 30.0752 23.419 30.5883 22.9253ZM33.9453 28.0008H37.6929C38.1642 29.4774 38.1642 31.064 37.6929 32.5405H33.9453C34.2252 31.0402 34.2252 29.5011 33.9453 28.0008ZM37.4514 27.3523H33.8034C33.3942 25.6841 32.5817 24.1419 31.4371 22.8612C32.7464 23.0134 33.9923 23.5089 35.0485 24.2975C36.1047 25.0862 36.9336 26.1401 37.4514 27.3523ZM29.7404 22.8612C28.5958 24.1419 27.7832 25.6841 27.374 27.3523H23.7261C24.2438 26.1401 25.0728 25.0862 26.1289 24.2975C27.1851 23.5089 28.431 23.0134 29.7404 22.8612ZM23.4837 28.0008H27.2314C26.9514 29.5011 26.9514 31.0402 27.2314 32.5405H23.4837C23.0124 31.064 23.0124 29.4774 23.4837 28.0008ZM23.7269 33.1891H27.3748C27.784 34.8572 28.5966 36.3994 29.7412 37.6801C28.4315 37.5283 27.1853 37.0329 26.1288 36.2442C25.0723 35.4555 24.2431 34.4015 23.7252 33.1891H23.7269ZM31.4379 37.6801C32.5819 36.3993 33.3939 34.8571 33.8026 33.1891H37.4506C36.9328 34.4013 36.1039 35.4551 35.0477 36.2438C33.9915 37.0325 32.7456 37.528 31.4363 37.6801H31.4379Z" fill="white"/>
</g>
<defs>
<filter id="filter0_d_254_67006" x="0.323602" y="0.00597477" width="60.5293" height="60.5293" filterUnits="userSpaceOnUse" color-interpolation-filters="sRGB">
<feFlood flood-opacity="0" result="BackgroundImageFix"/>
<feColorMatrix in="SourceAlpha" type="matrix" values="0 0 0 0 0 0 0 0 0 0 0 0 0 0 0 0 0 0 127 0" result="hardAlpha"/>
<feOffset/>
<feGaussianBlur stdDeviation="6.48529"/>
<feComposite in2="hardAlpha" operator="out"/>
<feColorMatrix type="matrix" values="0 0 0 0 0 0 0 0 0 0 0 0 0 0 0 0 0 0 0.15 0"/>
<feBlend mode="normal" in2="BackgroundImageFix" result="effect1_dropShadow_254_67006"/>
<feBlend mode="normal" in="SourceGraphic" in2="effect1_dropShadow_254_67006" result="shape"/>
</filter>
</defs>
</svg>
