<svg width="107" height="106" viewBox="0 0 107 106" fill="none" xmlns="http://www.w3.org/2000/svg">
<g clip-path="url(#clip0_31_78448)">
<rect x="0.5" width="106" height="106" rx="53" fill="url(#paint0_diamond_31_78448)"/>
<rect x="8.68481" y="99.2036" width="122.131" height="250.519" transform="rotate(-135 8.68481 99.2036)" fill="url(#paint1_linear_31_78448)"/>
<path d="M71.5 44C71.5 52.0184 64.6178 58.6559 55.75 59.6262V62C55.75 62.5967 55.5129 63.169 55.091 63.591C54.669 64.0129 54.0967 64.25 53.5 64.25C52.9033 64.25 52.331 64.0129 51.909 63.591C51.4871 63.169 51.25 62.5967 51.25 62V57.5C51.25 56.9033 51.4871 56.331 51.909 55.909C52.331 55.4871 52.9033 55.25 53.5 55.25C60.9447 55.25 67 50.2044 67 44C67 37.7956 60.9447 32.75 53.5 32.75C46.0553 32.75 40 37.7956 40 44C40 44.5967 39.7629 45.169 39.341 45.591C38.919 46.0129 38.3467 46.25 37.75 46.25C37.1533 46.25 36.581 46.0129 36.159 45.591C35.7371 45.169 35.5 44.5967 35.5 44C35.5 35.315 43.5747 28.25 53.5 28.25C63.4253 28.25 71.5 35.315 71.5 44ZM53.5 71C52.61 71 51.74 71.2639 50.9999 71.7584C50.2599 72.2529 49.6831 72.9557 49.3425 73.7779C49.0019 74.6002 48.9128 75.505 49.0865 76.3779C49.2601 77.2508 49.6887 78.0526 50.318 78.682C50.9474 79.3113 51.7492 79.7399 52.6221 79.9135C53.495 80.0872 54.3998 79.9981 55.2221 79.6575C56.0443 79.3169 56.7471 78.7401 57.2416 78.0001C57.7361 77.26 58 76.39 58 75.5C58 74.3065 57.5259 73.1619 56.682 72.318C55.8381 71.4741 54.6935 71 53.5 71Z" fill="white"/>
</g>
<defs>
<radialGradient id="paint0_diamond_31_78448" cx="0" cy="0" r="1" gradientUnits="userSpaceOnUse" gradientTransform="translate(39.5216 45.8843) rotate(45) scale(85.0165 211.056)">
<stop stop-color="#099FC0"/>
<stop offset="1" stop-color="#8358FF"/>
</radialGradient>
<linearGradient id="paint1_linear_31_78448" x1="-15.6195" y1="65.5691" x2="200.74" y2="149.798" gradientUnits="userSpaceOnUse">
<stop stop-color="#099FC0"/>
<stop offset="1" stop-color="#8358FF"/>
</linearGradient>
<clipPath id="clip0_31_78448">
<rect x="0.5" width="106" height="106" rx="53" fill="white"/>
</clipPath>
</defs>
</svg>
