<svg width="106" height="106" viewBox="0 0 106 106" fill="none" xmlns="http://www.w3.org/2000/svg">
<g clip-path="url(#clip0_31_68936)">
<rect width="106" height="106" rx="53" fill="url(#paint0_diamond_31_68936)"/>
<rect x="8.18481" y="99.2036" width="122.131" height="250.519" transform="rotate(-135 8.18481 99.2036)" fill="url(#paint1_linear_31_68936)"/>
<path d="M42.3656 25.7729V23.6988C42.3656 23.1487 42.5841 22.6211 42.9731 22.2322C43.362 21.8432 43.8896 21.6247 44.4397 21.6247C44.9898 21.6247 45.5173 21.8432 45.9063 22.2322C46.2953 22.6211 46.5138 23.1487 46.5138 23.6988V25.7729C46.5138 26.3229 46.2953 26.8505 45.9063 27.2395C45.5173 27.6284 44.9898 27.847 44.4397 27.847C43.8896 27.847 43.362 27.6284 42.9731 27.2395C42.5841 26.8505 42.3656 26.3229 42.3656 25.7729ZM23.6988 46.5138H25.7729C26.3229 46.5138 26.8505 46.2953 27.2395 45.9063C27.6284 45.5173 27.847 44.9898 27.847 44.4397C27.847 43.8896 27.6284 43.362 27.2395 42.9731C26.8505 42.5841 26.3229 42.3656 25.7729 42.3656H23.6988C23.1487 42.3656 22.6211 42.5841 22.2322 42.9731C21.8432 43.362 21.6247 43.8896 21.6247 44.4397C21.6247 44.9898 21.8432 45.5173 22.2322 45.9063C22.6211 46.2953 23.1487 46.5138 23.6988 46.5138ZM51.8079 29.7033C52.0516 29.8253 52.317 29.8982 52.5889 29.9176C52.8609 29.937 53.1339 29.9026 53.3925 29.8164C53.6511 29.7302 53.8902 29.5939 54.0961 29.4152C54.302 29.2365 54.4706 29.019 54.5924 28.7751L56.6665 24.6269C56.9126 24.1349 56.9533 23.5653 56.7794 23.0434C56.6056 22.5214 56.2316 22.0899 55.7396 21.8438C55.2476 21.5976 54.678 21.557 54.156 21.7308C53.6341 21.9046 53.2026 22.2786 52.9564 22.7706L50.8823 26.9188C50.7602 27.1624 50.6872 27.4277 50.6676 27.6994C50.648 27.9712 50.6822 28.2442 50.7681 28.5028C50.8541 28.7614 50.9902 29.0005 51.1686 29.2065C51.347 29.4125 51.5642 29.5813 51.8079 29.7033ZM26.9188 50.8823L22.7706 52.9564C22.2786 53.2026 21.9046 53.6341 21.7308 54.156C21.557 54.678 21.5976 55.2476 21.8438 55.7396C22.0899 56.2316 22.5214 56.6056 23.0434 56.7794C23.5653 56.9533 24.1349 56.9126 24.6269 56.6665L28.7751 54.5924C29.0187 54.4705 29.2359 54.3018 29.4143 54.096C29.5928 53.8901 29.7289 53.6512 29.815 53.3927C29.901 53.1343 29.9353 52.8614 29.916 52.5897C29.8966 52.318 29.8239 52.0528 29.702 51.8092C29.5801 51.5656 29.4114 51.3484 29.2056 51.17C28.9997 50.9915 28.7608 50.8554 28.5023 50.7693C28.2439 50.6833 27.971 50.649 27.6993 50.6683C27.4276 50.6877 27.1624 50.7604 26.9188 50.8823ZM76.4092 67.2547C76.7945 67.6399 77.1001 68.0972 77.3087 68.6006C77.5172 69.1039 77.6245 69.6434 77.6245 70.1882C77.6245 70.7331 77.5172 71.2725 77.3087 71.7759C77.1001 72.2792 76.7945 72.7366 76.4092 73.1218L73.1218 76.4092C72.7366 76.7945 72.2792 77.1001 71.7759 77.3087C71.2725 77.5172 70.7331 77.6245 70.1882 77.6245C69.6434 77.6245 69.1039 77.5172 68.6006 77.3087C68.0972 77.1001 67.6399 76.7945 67.2547 76.4092L53.9546 63.1065L49.3656 75.0559C49.3656 75.0818 49.3449 75.1103 49.3319 75.1388C49.0145 75.8789 48.4864 76.5092 47.8133 76.9513C47.1403 77.3934 46.352 77.6278 45.5467 77.6251H45.3419C44.5021 77.5896 43.6934 77.297 43.0253 76.787C42.3571 76.2769 41.8617 75.574 41.606 74.7733L28.0544 33.2707C27.8217 32.5449 27.7936 31.769 27.973 31.0282C28.1524 30.2874 28.5324 29.6104 29.0714 29.0714C29.6104 28.5324 30.2874 28.1524 31.0282 27.973C31.769 27.7936 32.5449 27.8217 33.2707 28.0544L74.7733 41.606C75.5665 41.8713 76.2609 42.3702 76.7655 43.0373C77.2701 43.7043 77.5613 44.5083 77.6008 45.3438C77.6404 46.1793 77.4264 47.0072 76.987 47.7189C76.5477 48.4306 75.9034 48.9929 75.1388 49.3319L75.0559 49.3656L63.1065 53.952L76.4092 67.2547ZM73.477 70.1869L60.1743 56.8842C59.6954 56.4063 59.3408 55.8185 59.1412 55.1721C58.9416 54.5256 58.9032 53.8402 59.0292 53.1755C59.1552 52.5108 59.4419 51.8871 59.8643 51.3586C60.2867 50.8301 60.8319 50.4129 61.4524 50.1434L61.5354 50.1071L73.4484 45.5338L31.9951 31.9951L45.5286 73.4407L50.1045 61.5146C50.1045 61.4861 50.1253 61.4576 50.1382 61.4291C50.4078 60.809 50.8249 60.2643 51.3531 59.8422C51.8814 59.4202 52.5047 59.1336 53.169 59.0076C53.4256 58.96 53.6859 58.9357 53.9468 58.935C55.0459 58.9362 56.0995 59.3735 56.8764 60.1509L70.1869 73.477L73.477 70.1869Z" fill="white"/>
</g>
<defs>
<radialGradient id="paint0_diamond_31_68936" cx="0" cy="0" r="1" gradientUnits="userSpaceOnUse" gradientTransform="translate(39.0216 45.8843) rotate(45) scale(85.0165 211.056)">
<stop stop-color="#099FC0"/>
<stop offset="1" stop-color="#8358FF"/>
</radialGradient>
<linearGradient id="paint1_linear_31_68936" x1="-16.1195" y1="65.5691" x2="200.24" y2="149.798" gradientUnits="userSpaceOnUse">
<stop stop-color="#099FC0"/>
<stop offset="1" stop-color="#8358FF"/>
</linearGradient>
<clipPath id="clip0_31_68936">
<rect width="106" height="106" rx="53" fill="white"/>
</clipPath>
</defs>
</svg>
