<svg width="106" height="106" viewBox="0 0 106 106" fill="none" xmlns="http://www.w3.org/2000/svg">
<g clip-path="url(#clip0_31_62664)">
<rect width="106" height="106" rx="53" fill="url(#paint0_diamond_31_62664)"/>
<rect x="8.18481" y="99.2036" width="122.131" height="250.519" transform="rotate(-135 8.18481 99.2036)" fill="url(#paint1_linear_31_62664)"/>
<path d="M78.4375 27.5625H36.8125C35.5859 27.5625 34.4095 28.0498 33.5421 28.9171C32.6748 29.7845 32.1875 30.9609 32.1875 32.1875V36.8125H27.5625C26.3359 36.8125 25.1595 37.2998 24.2921 38.1671C23.4248 39.0345 22.9375 40.2109 22.9375 41.4375V73.8125C22.9375 75.0391 23.4248 76.2155 24.2921 77.0829C25.1595 77.9502 26.3359 78.4375 27.5625 78.4375H69.1875C70.4141 78.4375 71.5905 77.9502 72.4579 77.0829C73.3252 76.2155 73.8125 75.0391 73.8125 73.8125V69.1875H78.4375C79.6641 69.1875 80.8405 68.7002 81.7079 67.8329C82.5752 66.9655 83.0625 65.7891 83.0625 64.5625V32.1875C83.0625 30.9609 82.5752 29.7845 81.7079 28.9171C80.8405 28.0498 79.6641 27.5625 78.4375 27.5625ZM69.1875 41.4375V46.0625H27.5625V41.4375H69.1875ZM69.1875 73.8125H27.5625V50.6875H69.1875V73.8125ZM78.4375 64.5625H73.8125V41.4375C73.8125 40.2109 73.3252 39.0345 72.4579 38.1671C71.5905 37.2998 70.4141 36.8125 69.1875 36.8125H36.8125V32.1875H78.4375V64.5625Z" fill="white"/>
</g>
<defs>
<radialGradient id="paint0_diamond_31_62664" cx="0" cy="0" r="1" gradientUnits="userSpaceOnUse" gradientTransform="translate(39.0216 45.8843) rotate(45) scale(85.0165 211.056)">
<stop stop-color="#099FC0"/>
<stop offset="1" stop-color="#8358FF"/>
</radialGradient>
<linearGradient id="paint1_linear_31_62664" x1="-16.1195" y1="65.5691" x2="200.24" y2="149.798" gradientUnits="userSpaceOnUse">
<stop stop-color="#099FC0"/>
<stop offset="1" stop-color="#8358FF"/>
</linearGradient>
<clipPath id="clip0_31_62664">
<rect width="106" height="106" rx="53" fill="white"/>
</clipPath>
</defs>
</svg>
