<svg width="106" height="106" viewBox="0 0 106 106" fill="none" xmlns="http://www.w3.org/2000/svg">
<g clip-path="url(#clip0_511_45014)">
<rect width="106" height="106" rx="53" fill="url(#paint0_diamond_511_45014)"/>
<rect x="8.18481" y="99.2037" width="122.131" height="250.519" transform="rotate(-135 8.18481 99.2037)" fill="url(#paint1_linear_511_45014)"/>
<path d="M53 44H82.25C82.8467 44 83.419 44.2371 83.841 44.659C84.2629 45.081 84.5 45.6533 84.5 46.25C84.5 46.8467 84.2629 47.419 83.841 47.841C83.419 48.2629 82.8467 48.5 82.25 48.5H53C52.4033 48.5 51.831 48.2629 51.409 47.841C50.9871 47.419 50.75 46.8467 50.75 46.25C50.75 45.6533 50.9871 45.081 51.409 44.659C51.831 44.2371 52.4033 44 53 44ZM82.25 53H53C52.4033 53 51.831 53.2371 51.409 53.659C50.9871 54.081 50.75 54.6533 50.75 55.25C50.75 55.8467 50.9871 56.419 51.409 56.841C51.831 57.2629 52.4033 57.5 53 57.5H82.25C82.8467 57.5 83.419 57.2629 83.841 56.841C84.2629 56.419 84.5 55.8467 84.5 55.25C84.5 54.6533 84.2629 54.081 83.841 53.659C83.419 53.2371 82.8467 53 82.25 53ZM82.25 62H39.5C38.9033 62 38.331 62.2371 37.909 62.659C37.4871 63.081 37.25 63.6533 37.25 64.25C37.25 64.8467 37.4871 65.419 37.909 65.841C38.331 66.2629 38.9033 66.5 39.5 66.5H82.25C82.8467 66.5 83.419 66.2629 83.841 65.841C84.2629 65.419 84.5 64.8467 84.5 64.25C84.5 63.6533 84.2629 63.081 83.841 62.659C83.419 62.2371 82.8467 62 82.25 62ZM82.25 71H39.5C38.9033 71 38.331 71.2371 37.909 71.659C37.4871 72.081 37.25 72.6533 37.25 73.25C37.25 73.8467 37.4871 74.419 37.909 74.841C38.331 75.2629 38.9033 75.5 39.5 75.5H82.25C82.8467 75.5 83.419 75.2629 83.841 74.841C84.2629 74.419 84.5 73.8467 84.5 73.25C84.5 72.6533 84.2629 72.081 83.841 71.659C83.419 71.2371 82.8467 71 82.25 71ZM44 57.5C44.5967 57.5 45.169 57.2629 45.591 56.841C46.0129 56.419 46.25 55.8467 46.25 55.25C46.25 54.6533 46.0129 54.081 45.591 53.659C45.169 53.2371 44.5967 53 44 53H41.75V35H50.75V37.25C50.75 37.8467 50.9871 38.419 51.409 38.841C51.831 39.2629 52.4033 39.5 53 39.5C53.5967 39.5 54.169 39.2629 54.591 38.841C55.0129 38.419 55.25 37.8467 55.25 37.25V32.75C55.25 32.1533 55.0129 31.581 54.591 31.159C54.169 30.7371 53.5967 30.5 53 30.5H26C25.4033 30.5 24.831 30.7371 24.409 31.159C23.9871 31.581 23.75 32.1533 23.75 32.75V37.25C23.75 37.8467 23.9871 38.419 24.409 38.841C24.831 39.2629 25.4033 39.5 26 39.5C26.5967 39.5 27.169 39.2629 27.591 38.841C28.0129 38.419 28.25 37.8467 28.25 37.25V35H37.25V53H35C34.4033 53 33.831 53.2371 33.409 53.659C32.9871 54.081 32.75 54.6533 32.75 55.25C32.75 55.8467 32.9871 56.419 33.409 56.841C33.831 57.2629 34.4033 57.5 35 57.5H44Z" fill="white"/>
</g>
<defs>
<radialGradient id="paint0_diamond_511_45014" cx="0" cy="0" r="1" gradientUnits="userSpaceOnUse" gradientTransform="translate(39.0216 45.8843) rotate(45) scale(85.0165 211.056)">
<stop stop-color="#099FC0"/>
<stop offset="1" stop-color="#8358FF"/>
</radialGradient>
<linearGradient id="paint1_linear_511_45014" x1="-16.1195" y1="65.5692" x2="200.24" y2="149.798" gradientUnits="userSpaceOnUse">
<stop stop-color="#099FC0"/>
<stop offset="1" stop-color="#8358FF"/>
</linearGradient>
<clipPath id="clip0_511_45014">
<rect width="106" height="106" rx="53" fill="white"/>
</clipPath>
</defs>
</svg>
