<svg width="107" height="106" viewBox="0 0 107 106" fill="none" xmlns="http://www.w3.org/2000/svg">
<rect x="0.5" width="106" height="106" rx="53" fill="white"/>
<path d="M79.7638 35.2431L75.2638 26.2431C75.0767 25.8693 74.7892 25.555 74.4335 25.3354C74.0778 25.1159 73.668 24.9997 73.25 25H32.75C32.332 24.9997 31.9222 25.1159 31.5665 25.3354C31.2108 25.555 30.9233 25.8693 30.7362 26.2431L26.2363 35.2431C26.0812 35.5561 26.0003 35.9007 26 36.25V74.5C26 75.6935 26.4741 76.8381 27.318 77.682C28.1619 78.5259 29.3065 79 30.5 79H75.5C76.6935 79 77.8381 78.5259 78.682 77.682C79.5259 76.8381 80 75.6935 80 74.5V36.25C79.9997 35.9007 79.9188 35.5561 79.7638 35.2431ZM34.1394 29.5H71.8606L74.1106 34H31.8894L34.1394 29.5ZM75.5 74.5H30.5V38.5H75.5V74.5ZM63.5919 57.1581C63.8011 57.3671 63.967 57.6152 64.0803 57.8884C64.1935 58.1615 64.2518 58.4543 64.2518 58.75C64.2518 59.0457 64.1935 59.3385 64.0803 59.6116C63.967 59.8848 63.8011 60.1329 63.5919 60.3419L54.5919 69.3419C54.3829 69.5511 54.1348 69.717 53.8616 69.8303C53.5885 69.9435 53.2957 70.0018 53 70.0018C52.7043 70.0018 52.4115 69.9435 52.1384 69.8303C51.8652 69.717 51.6171 69.5511 51.4081 69.3419L42.4081 60.3419C41.9859 59.9197 41.7487 59.3471 41.7487 58.75C41.7487 58.1529 41.9859 57.5803 42.4081 57.1581C42.8303 56.7359 43.4029 56.4987 44 56.4987C44.5971 56.4987 45.1697 56.7359 45.5919 57.1581L50.75 62.3191V45.25C50.75 44.6533 50.9871 44.081 51.409 43.659C51.831 43.2371 52.4033 43 53 43C53.5967 43 54.169 43.2371 54.591 43.659C55.0129 44.081 55.25 44.6533 55.25 45.25V62.3191L60.4081 57.1581C60.6171 56.9489 60.8652 56.783 61.1384 56.6697C61.4115 56.5565 61.7043 56.4982 62 56.4982C62.2957 56.4982 62.5885 56.5565 62.8616 56.6697C63.1348 56.783 63.3829 56.9489 63.5919 57.1581Z" fill="url(#paint0_linear_344_49459)"/>
<defs>
<linearGradient id="paint0_linear_344_49459" x1="15.2539" y1="17.75" x2="82.5206" y2="71.4654" gradientUnits="userSpaceOnUse">
<stop stop-color="#099FC0"/>
<stop offset="1" stop-color="#8358FF"/>
</linearGradient>
</defs>
</svg>
