<svg xmlns="http://www.w3.org/2000/svg" width="52" height="51" viewBox="0 0 52 51" fill="none">
<path opacity="0.3" d="M12.0263 20.7379L22.1933 17.2077C24.2611 16.4902 25.8703 14.7395 26.5047 12.5132L29.6466 1.5537C30.0785 0.0366704 32.0737 0.0243808 32.5285 1.52911L35.8194 12.4394C36.4883 14.6534 38.1204 16.3796 40.1958 17.0643L50.4126 20.4304C51.823 20.8937 51.8382 23.034 50.4317 23.5219L40.2646 27.052C38.2007 27.7695 36.5915 29.5203 35.9532 31.7466L32.8152 42.7061C32.3795 44.2231 30.3881 44.2395 29.9333 42.7307L26.6423 31.8204C25.9735 29.6064 24.3376 27.8802 22.2621 27.1955L12.0492 23.8294C10.635 23.3661 10.6197 21.2258 12.0263 20.7379Z" fill="#9E9BA4"/>
<circle opacity="0.3" cx="4.23047" cy="46.6094" r="3.75" fill="#9E9BA4"/>
</svg>