<svg width="52" height="45" viewBox="0 0 52 45" fill="none" xmlns="http://www.w3.org/2000/svg">
<path d="M19.9393 37.6714L16.6187 28.071C15.9438 26.1184 14.297 24.599 12.2028 23.9998L1.8939 21.0331C0.466926 20.6253 0.455366 18.7413 1.87077 18.3118L12.1334 15.2043C14.216 14.5727 15.8397 13.0316 16.4837 11.0718L19.6501 1.42451C20.0859 0.0927325 22.0991 0.0782975 22.558 1.40647L25.8786 11.0069C26.5535 12.9558 28.2003 14.4753 30.2945 15.078L40.6034 18.0411C42.0304 18.4526 42.0458 20.3329 40.6265 20.7624L30.3639 23.8699C28.2813 24.5015 26.6576 26.0462 26.0136 28.006L22.8473 37.6497C22.4115 38.9851 20.3983 38.9995 19.9393 37.6714Z" fill="#9E9BA4"/>
<circle cx="48.9587" cy="41.943" r="2.94695" fill="#9E9BA4"/>
</svg>
