<svg width="45" height="52" viewBox="0 0 45 52" fill="none" xmlns="http://www.w3.org/2000/svg">
<path d="M7.29739 19.2323L16.8978 15.9117C18.8503 15.2368 20.3698 13.59 20.9689 11.4958L23.9356 1.18687C24.3435 -0.240102 26.2275 -0.251662 26.657 1.16374L29.7644 11.4264C30.396 13.509 31.9372 15.1326 33.8969 15.7767L43.5442 18.943C44.876 19.3788 44.8905 21.392 43.5623 21.851L33.9619 25.1716C32.013 25.8465 30.4935 27.4933 29.8908 29.5875L26.9276 39.8964C26.5162 41.3234 24.6358 41.3388 24.2063 39.9195L21.0988 29.6569C20.4672 27.5743 18.9225 25.9506 16.9627 25.3066L7.31904 22.1402C5.98365 21.7044 5.96921 19.6912 7.29739 19.2323Z" fill="#9E9BA4"/>
<circle cx="3.0257" cy="48.2516" r="2.94695" transform="rotate(90 3.0257 48.2516)" fill="#9E9BA4"/>
</svg>
