<svg xmlns="http://www.w3.org/2000/svg" width="54" height="50" viewBox="0 0 54 50" fill="none">
<path d="M45.3125 26.8236L33.832 30.7945C31.4971 31.6016 29.6801 33.5709 28.9636 36.0752L25.4159 48.4029C24.9282 50.1093 22.6753 50.1231 22.1617 48.4306L18.4457 36.1582C17.6904 33.6678 15.8474 31.7261 13.5039 30.9559L1.96733 27.1695C0.374741 26.6484 0.357479 24.2409 1.94575 23.6921L13.4262 19.7212C15.7568 18.9141 17.5738 16.9448 18.2946 14.4406L21.838 2.11283C22.33 0.406415 24.5786 0.387967 25.0922 2.08516L28.8083 14.3575C29.5636 16.848 31.4108 18.7896 33.7543 19.5598L45.2866 23.3462C46.8835 23.8674 46.9007 26.2748 45.3125 26.8236Z" fill="white"/>
<path d="M50.0177 0.822971C51.964 0.822971 53.5418 2.40075 53.5418 4.34703C53.5418 6.29332 51.964 7.87109 50.0177 7.87109C48.0714 7.87109 46.4937 6.29332 46.4937 4.34703C46.4937 2.40075 48.0714 0.822971 50.0177 0.822971Z" fill="white"/>
</svg>