<svg xmlns="http://www.w3.org/2000/svg" width="61" height="54" viewBox="0 0 61 54" fill="none"><g opacity="0.3"><path d="M20.209 39.4933L16.855 29.3262C16.1732 27.2584 14.5099 25.6493 12.3946 25.0148L1.9819 21.8729C0.540559 21.441 0.528882 19.4459 1.95854 18.991L12.3245 15.7001C14.4281 15.0312 16.0681 13.3991 16.7186 11.3237L19.9168 1.10697C20.357 -0.303421 22.3905 -0.318708 22.8541 1.08786L26.2081 11.2549C26.8898 13.3189 28.5532 14.928 30.6684 15.5663L41.0812 18.7043C42.5225 19.1401 42.5381 21.1314 41.1045 21.5863L30.7386 24.8772C28.635 25.5461 26.995 27.182 26.3444 29.2574L23.1462 39.4703C22.706 40.8845 20.6726 40.8998 20.209 39.4933Z" fill="#9E9BA4"/><path d="M49.3105 52.4781L47.6651 47.3946C47.3307 46.3607 46.5147 45.5561 45.477 45.2388L40.3689 43.6679C39.6618 43.452 39.6561 42.4544 40.3574 42.227L45.4426 40.5815C46.4745 40.2471 47.2791 39.431 47.5982 38.3933L49.1671 33.2849C49.3831 32.5797 50.3806 32.5721 50.608 33.2754L52.2534 38.3589C52.5878 39.3909 53.4038 40.1955 54.4415 40.5146L59.5496 42.0836C60.2567 42.3015 60.2644 43.2972 59.5611 43.5246L54.4759 45.17C53.444 45.5045 52.6394 46.3224 52.3203 47.3602L50.7514 52.4666C50.5354 53.1737 49.5379 53.1814 49.3105 52.4781Z" fill="#9E9BA4"/></g></svg>