<svg width="56" height="56" viewBox="0 0 56 56" fill="none" xmlns="http://www.w3.org/2000/svg">
<path d="M29.5458 54.3024L34.053 40.3769C34.969 37.5447 37.2043 35.3407 40.0468 34.4716L54.0394 30.1683C55.9763 29.5767 55.992 26.844 54.0708 26.221L40.141 21.7135C37.3142 20.7974 35.1104 18.5619 34.2362 15.7192L29.9384 1.72563C29.3469 -0.206144 26.6143 -0.227083 25.9913 1.69946L21.4842 15.625C20.5681 18.452 18.3328 20.656 15.4903 21.5303L1.4977 25.8284C-0.439173 26.4252 -0.460116 29.1527 1.46629 29.7757L15.3961 34.2832C18.2229 35.1993 20.4268 37.44 21.301 40.2827L25.5987 54.271C26.1903 56.208 28.9228 56.229 29.5458 54.3024Z" fill="#9E9BA4"/>
<circle cx="4" cy="4" r="4" transform="matrix(-1 -8.74228e-08 -8.74228e-08 1 55.0332 0.736328)" fill="#9E9BA4"/>
</svg>
