<svg width="60" height="56" viewBox="0 0 60 56" fill="none" xmlns="http://www.w3.org/2000/svg">
<path d="M50.659 29.6141L37.6281 34.1213C34.9779 35.0374 32.9154 37.2727 32.1022 40.1152L28.0754 54.1078C27.5218 56.0447 24.9646 56.0604 24.3817 54.1392L20.1638 40.2094C19.3065 37.3826 17.2146 35.1787 14.5546 34.3045L1.45997 30.0068C-0.347708 29.4152 -0.367301 26.6826 1.43547 26.0597L14.4664 21.5526C17.1118 20.6365 19.1742 18.4012 19.9923 15.5587L24.0142 1.56606C24.5727 -0.37081 27.125 -0.391753 27.708 1.53465L31.9259 15.4645C32.7832 18.2913 34.8799 20.4951 37.5399 21.3693L50.6297 25.6671C52.4422 26.2586 52.4618 28.9912 50.659 29.6141Z" fill="#9E9BA4"/>
<path d="M56 0.101563C58.2091 0.101563 60 1.89242 60 4.10156C60 6.3107 58.2091 8.10156 56 8.10156C53.7909 8.10156 52 6.3107 52 4.10156C52 1.89242 53.7909 0.101563 56 0.101563Z" fill="#9E9BA4"/>
</svg>
