<svg width="107" height="112" viewBox="0 0 107 112" fill="none" xmlns="http://www.w3.org/2000/svg">
<g id="Group 1000002931">
<path id="Union" d="M10.9957 5.07462C4.98919 5.29455 0.514404 10.2799 0.514404 16.0401V67.1329C0.514404 73.3714 3.75617 78.9315 7.66054 83.4516C11.6352 88.053 16.8754 92.2494 22.1616 95.8575C32.7561 103.089 44.4423 108.562 49.1334 110.649C51.9192 111.889 55.0807 111.889 57.8665 110.649C62.5576 108.562 74.2438 103.089 84.8383 95.8575C90.1245 92.2494 95.3647 88.053 99.3393 83.4516C103.244 78.9315 106.485 73.3714 106.485 67.1329V17.2151C106.485 10.4822 100.702 5.59763 94.4938 5.7757C86.8121 5.99605 72.5077 5.50736 56.7842 0.530014C54.739 -0.117415 52.5164 -0.178464 50.418 0.384139C33.0513 5.0405 26.5508 5.01613 18.9171 4.98752L17.8276 4.9837C15.7669 4.97763 13.5368 4.98158 10.9957 5.07462Z" fill="url(#paint0_diamond_5829_15233)"/>
<g id="Union_2" filter="url(#filter0_b_5829_15233)">
<path d="M10.9957 5.07462C4.98919 5.29455 0.514404 10.2799 0.514404 16.0401V67.133C0.514404 73.3714 3.75617 78.9315 7.66054 83.4516C11.6352 88.053 16.8754 92.2495 22.1616 95.8575L75.8139 4.75435C70.0048 3.97266 63.5249 2.66381 56.7842 0.530014C54.739 -0.117415 52.5164 -0.178464 50.418 0.384139C33.0513 5.04051 26.5508 5.01614 18.9171 4.98752L17.8276 4.9837C15.7669 4.97763 13.5368 4.98158 10.9957 5.07462Z" fill="url(#paint1_linear_5829_15233)"/>
</g>
<g id="lock">
<path id="Rectangle 1" d="M31.5125 48.7017C31.5125 46.2549 33.4961 44.2713 35.9429 44.2713H71.3855C73.8323 44.2713 75.8158 46.2549 75.8158 48.7017V62.8787C75.8158 75.1127 65.8982 85.0304 53.6642 85.0304C41.4302 85.0304 31.5125 75.1127 31.5125 62.8787V48.7017Z" fill="white" stroke="url(#paint2_linear_5829_15233)" stroke-width="1.77215"/>
<path id="Intersect" d="M30.6263 48.7002C30.6263 45.7641 33.0066 43.3838 35.9428 43.3838H71.3853C74.3215 43.3838 76.7018 45.764 76.7018 48.7002V62.8772C76.7018 75.6006 66.3874 85.915 53.6641 85.915C40.9407 85.915 30.6263 75.6006 30.6263 62.8772V48.7002Z" fill="white"/>
<path id="Ellipse 1" d="M64.3119 36.2954C64.3119 33.4754 63.1916 30.7709 61.1976 28.7769C59.2035 26.7828 56.4991 25.6626 53.6791 25.6626C50.8591 25.6626 48.1546 26.7828 46.1605 28.7769C44.1665 30.7709 43.0463 33.4754 43.0463 36.2954" stroke="white" stroke-width="5.31645" stroke-linecap="round"/>
<path id="Union_3" fill-rule="evenodd" clip-rule="evenodd" d="M56.8591 65.0259C56.6755 64.2912 57.0022 63.5397 57.5232 62.9901C58.4263 62.0372 58.9803 60.75 58.9803 59.3335C58.9803 56.3973 56.6001 54.0171 53.6639 54.0171C50.7278 54.0171 48.3475 56.3973 48.3475 59.3335C48.3475 60.75 48.9015 62.0372 49.8047 62.9901C50.3257 63.5397 50.6524 64.2912 50.4687 65.0259L48.898 71.3087C48.6184 72.4272 49.4644 73.5107 50.6173 73.5107H56.7106C57.8635 73.5107 58.7095 72.4272 58.4299 71.3087L56.8591 65.0259Z" fill="url(#paint3_linear_5829_15233)"/>
</g>
</g>
<defs>
<filter id="filter0_b_5829_15233" x="-47.4645" y="-47.979" width="171.257" height="191.815" filterUnits="userSpaceOnUse" color-interpolation-filters="sRGB">
<feFlood flood-opacity="0" result="BackgroundImageFix"/>
<feGaussianBlur in="BackgroundImageFix" stdDeviation="23.9895"/>
<feComposite in2="SourceAlpha" operator="in" result="effect1_backgroundBlur_5829_15233"/>
<feBlend mode="normal" in="SourceGraphic" in2="effect1_backgroundBlur_5829_15233" result="shape"/>
</filter>
<radialGradient id="paint0_diamond_5829_15233" cx="0" cy="0" r="1" gradientUnits="userSpaceOnUse" gradientTransform="translate(39.5253 48.2992) rotate(46.4766) scale(87.2712 216.365)">
<stop stop-color="#099FC0"/>
<stop offset="1" stop-color="#8358FF"/>
</radialGradient>
<linearGradient id="paint1_linear_5829_15233" x1="-14.4703" y1="-12.8698" x2="95.7655" y2="56.2794" gradientUnits="userSpaceOnUse">
<stop stop-color="#099FC0"/>
<stop offset="1" stop-color="#8358FF"/>
</linearGradient>
<linearGradient id="paint2_linear_5829_15233" x1="21.4574" y1="37.6751" x2="75.2184" y2="84.1831" gradientUnits="userSpaceOnUse">
<stop stop-color="#0933C0"/>
<stop offset="1" stop-color="#587EFF"/>
</linearGradient>
<linearGradient id="paint3_linear_5829_15233" x1="46.2316" y1="51.3999" x2="64.4637" y2="59.3411" gradientUnits="userSpaceOnUse">
<stop stop-color="#0933C0"/>
<stop offset="1" stop-color="#587EFF"/>
</linearGradient>
</defs>
</svg>
