<svg width="106" height="106" viewBox="0 0 106 106" fill="none" xmlns="http://www.w3.org/2000/svg">
<g clip-path="url(#clip0_31_55990)">
<rect width="106" height="106" rx="53" fill="url(#paint0_diamond_31_55990)"/>
<rect x="8.18481" y="99.2036" width="122.131" height="250.519" transform="rotate(-135 8.18481 99.2036)" fill="url(#paint1_linear_31_55990)"/>
<g clip-path="url(#clip1_31_55990)">
<path d="M78.3531 51.9856L54.2906 21.3606C54.1371 21.1651 53.9412 21.0069 53.7176 20.8982C53.494 20.7894 53.2486 20.7329 53 20.7329C52.7514 20.7329 52.506 20.7894 52.2824 20.8982C52.0588 21.0069 51.8629 21.1651 51.7094 21.3606L27.6469 51.9856C27.4194 52.2748 27.2957 52.6321 27.2957 53.0001C27.2957 53.3681 27.4194 53.7254 27.6469 54.0146L51.7094 84.6396C51.8629 84.8352 52.0588 84.9933 52.2824 85.102C52.506 85.2108 52.7514 85.2673 53 85.2673C53.2486 85.2673 53.494 85.2108 53.7176 85.102C53.9412 84.9933 54.1371 84.8352 54.2906 84.6396L78.3531 54.0146C78.5807 53.7254 78.7044 53.3681 78.7044 53.0001C78.7044 52.6321 78.5807 52.2748 78.3531 51.9856ZM54.6406 27.1192L74.4813 52.3712L54.6406 61.3946V27.1192ZM51.3594 61.3892L31.5188 52.3657L51.3594 27.1192V61.3892ZM51.3594 64.9931V78.881L34.3844 57.2794L51.3594 64.9931ZM54.6406 64.9931L71.6156 57.2794L54.6406 78.881V64.9931Z" fill="white"/>
</g>
</g>
<defs>
<radialGradient id="paint0_diamond_31_55990" cx="0" cy="0" r="1" gradientUnits="userSpaceOnUse" gradientTransform="translate(39.0216 45.8843) rotate(45) scale(85.0165 211.056)">
<stop stop-color="#099FC0"/>
<stop offset="1" stop-color="#8358FF"/>
</radialGradient>
<linearGradient id="paint1_linear_31_55990" x1="-16.1195" y1="65.5691" x2="200.24" y2="149.798" gradientUnits="userSpaceOnUse">
<stop stop-color="#099FC0"/>
<stop offset="1" stop-color="#8358FF"/>
</linearGradient>
<clipPath id="clip0_31_55990">
<rect width="106" height="106" rx="53" fill="white"/>
</clipPath>
<clipPath id="clip1_31_55990">
<rect width="74.2" height="74.2" fill="white" transform="translate(15.9 15.8999)"/>
</clipPath>
</defs>
</svg>
