<svg width="106" height="106" viewBox="0 0 106 106" fill="none" xmlns="http://www.w3.org/2000/svg">
<g clip-path="url(#clip0_31_58171)">
<rect width="106" height="106" rx="53" fill="url(#paint0_diamond_31_58171)"/>
<rect x="8.18481" y="99.2036" width="122.131" height="250.519" transform="rotate(-135 8.18481 99.2036)" fill="url(#paint1_linear_31_58171)"/>
<path d="M86.5013 34.375V53.375C86.5013 54.0049 86.2511 54.609 85.8057 55.0544C85.3603 55.4998 84.7562 55.75 84.1263 55.75C83.4964 55.75 82.8923 55.4998 82.4469 55.0544C82.0015 54.609 81.7513 54.0049 81.7513 53.375V40.1077L57.3066 64.5553C57.0861 64.7761 56.8241 64.9513 56.5358 65.0708C56.2475 65.1904 55.9384 65.2519 55.6263 65.2519C55.3142 65.2519 55.0052 65.1904 54.7168 65.0708C54.4285 64.9513 54.1666 64.7761 53.946 64.5553L43.7513 54.3577L24.0566 74.0553C23.611 74.501 23.0066 74.7513 22.3763 74.7513C21.7461 74.7513 21.1417 74.501 20.696 74.0553C20.2504 73.6097 20 73.0052 20 72.375C20 71.7448 20.2504 71.1403 20.696 70.6947L42.071 49.3197C42.2916 49.0989 42.5535 48.9237 42.8418 48.8042C43.1302 48.6847 43.4392 48.6231 43.7513 48.6231C44.0634 48.6231 44.3725 48.6847 44.6608 48.8042C44.9491 48.9237 45.2111 49.0989 45.4316 49.3197L55.6263 59.5173L78.3937 36.75H65.1263C64.4964 36.75 63.8923 36.4998 63.4469 36.0544C63.0015 35.609 62.7513 35.0049 62.7513 34.375C62.7513 33.7451 63.0015 33.141 63.4469 32.6956C63.8923 32.2502 64.4964 32 65.1263 32H84.1263C84.7562 32 85.3603 32.2502 85.8057 32.6956C86.2511 33.141 86.5013 33.7451 86.5013 34.375Z" fill="white"/>
</g>
<defs>
<radialGradient id="paint0_diamond_31_58171" cx="0" cy="0" r="1" gradientUnits="userSpaceOnUse" gradientTransform="translate(39.0216 45.8843) rotate(45) scale(85.0165 211.056)">
<stop stop-color="#099FC0"/>
<stop offset="1" stop-color="#8358FF"/>
</radialGradient>
<linearGradient id="paint1_linear_31_58171" x1="-16.1195" y1="65.5691" x2="200.24" y2="149.798" gradientUnits="userSpaceOnUse">
<stop stop-color="#099FC0"/>
<stop offset="1" stop-color="#8358FF"/>
</linearGradient>
<clipPath id="clip0_31_58171">
<rect width="106" height="106" rx="53" fill="white"/>
</clipPath>
</defs>
</svg>
