<svg width="18" height="18" viewBox="0 0 18 18" fill="none" xmlns="http://www.w3.org/2000/svg">
<path fill-rule="evenodd" clip-rule="evenodd" d="M8.59033 17.7153C13.3346 17.7153 17.1807 13.8693 17.1807 9.125C17.1807 4.38069 13.3346 0.534668 8.59033 0.534668C3.84602 0.534668 0 4.38069 0 9.125C0 13.8693 3.84602 17.7153 8.59033 17.7153ZM13.322 7.01456C13.7702 6.44802 13.6742 5.62544 13.1077 5.17728C12.5411 4.72912 11.7185 4.82509 11.2704 5.39163L7.50162 10.1559L5.74569 8.61946C5.20205 8.14378 4.37573 8.19887 3.90004 8.7425C3.42436 9.28614 3.47945 10.1125 4.02309 10.5881L6.81341 13.0297C7.08294 13.2655 7.43739 13.3805 7.79404 13.3479C8.15069 13.3152 8.47834 13.1377 8.70053 12.8568L13.322 7.01456Z" fill="#242424"/>
</svg>
