<svg width="18" height="18" viewBox="0 0 18 18" fill="none" xmlns="http://www.w3.org/2000/svg">
<path fill-rule="evenodd" clip-rule="evenodd" d="M8.59033 17.2739C13.3346 17.2739 17.1807 13.4279 17.1807 8.68359C17.1807 3.93928 13.3346 0.0932617 8.59033 0.0932617C3.84602 0.0932617 0 3.93928 0 8.68359C0 13.4279 3.84602 17.2739 8.59033 17.2739ZM13.322 6.57315C13.7702 6.00661 13.6742 5.18403 13.1077 4.73587C12.5411 4.28771 11.7185 4.38368 11.2704 4.95022L7.50162 9.7145L5.74569 8.17805C5.20205 7.70237 4.37573 7.75746 3.90004 8.3011C3.42436 8.84474 3.47945 9.67106 4.02309 10.1467L6.81341 12.5883C7.08294 12.8241 7.43739 12.9391 7.79404 12.9064C8.15069 12.8738 8.47834 12.6963 8.70053 12.4154L13.322 6.57315Z" fill="white"/>
</svg>
