<svg xmlns="http://www.w3.org/2000/svg" width="24" height="24" viewBox="0 0 24 24"
     fill="none">
    <rect width="24" height="24" rx="3.75" fill="url(#paint0_linear_1569_7325)"/>
    <path fill-rule="evenodd" clip-rule="evenodd"
          d="M13.7865 6.14511C13.8938 6.60833 13.9505 7.09093 13.9505 7.58677C13.9505 11.1011 11.1016 13.9499 7.58729 13.9499C7.09126 13.9499 6.6085 13.8932 6.14513 13.7858L6.14148 13.785C6.10165 13.7757 6.06196 13.7661 6.02242 13.7561C5.87635 13.7192 5.7323 13.6772 5.59045 13.6303C5.31277 13.5386 5.02507 13.7788 5.11711 14.0563C5.17034 14.2168 5.22917 14.3748 5.29336 14.53C5.31146 14.5737 5.32998 14.6173 5.34893 14.6606C5.34998 14.663 5.35104 14.6654 5.35209 14.6678C6.44549 17.1593 8.93422 18.8994 11.8294 18.8994C15.7342 18.8994 18.8996 15.734 18.8996 11.8292C18.8996 8.93425 17.1597 6.44566 14.6685 5.35215C14.6661 5.3511 14.6637 5.35004 14.6613 5.34899C14.618 5.33004 14.5744 5.31151 14.5307 5.29341C14.3755 5.2292 14.2175 5.17036 14.057 5.11712C13.7795 5.02505 13.5393 5.31274 13.631 5.59042C13.6778 5.73227 13.7198 5.87633 13.7567 6.02241C13.7667 6.06195 13.7764 6.10164 13.7856 6.14147L13.7865 6.14511Z"
          fill="#242424"/>
    <defs>
        <linearGradient id="paint0_linear_1569_7325" x1="22" y1="1.5" x2="1.3411e-06" y2="24"
                        gradientUnits="userSpaceOnUse">
            <stop offset="0.0364583" stop-color="#0A1439" stop-opacity="0.1"/>
            <stop offset="0.411458" stop-color="#0A1439" stop-opacity="0.03"/>
            <stop offset="1" stop-color="#0A1439" stop-opacity="0.1"/>
        </linearGradient>
    </defs>
</svg>