<svg width="134" height="327" viewBox="0 0 134 327" fill="none" xmlns="http://www.w3.org/2000/svg">
<path d="M181.884 27.3608C182.379 28.1981 181.725 29.2332 180.752 29.2332C161.066 29.2332 145.062 44.8197 144.686 64.1878C137.945 62.9293 130.96 62.8347 124.06 63.9973C123.583 44.7175 107.62 29.2332 87.9982 29.2332C87.0251 29.2332 86.3705 28.1973 86.8653 27.3594C96.395 11.2198 114.103 0.375 134.374 0.375C154.646 0.375 172.355 11.2205 181.884 27.3608Z" fill="white" fill-opacity="0.15"/>
<path d="M240.191 147.149C246.888 149.177 253.198 143.291 250.671 136.767C231.89 88.2808 176.303 68.417 134.105 68.417C91.8246 68.417 34.9992 88.9231 17.4415 137.069C15.0776 143.551 21.3709 149.243 27.9678 147.222L129.094 116.234C132.013 115.339 135.133 115.334 138.055 116.219L240.191 147.149Z" fill="white" fill-opacity="0.15"/>
<path d="M16.4544 156.483L129.179 122.295C132.081 121.415 135.178 121.413 138.081 122.289L251.514 156.5C260.986 159.357 267.468 168.082 267.468 177.976V281.053C267.029 306.214 244.427 326.38 219.275 326.38H177.498C173.369 326.38 170.024 323.04 170.024 318.91V282.77C170.024 268.54 178.446 255.66 191.479 249.959C208.949 242.317 229.616 231.981 233.503 211.239C234.758 204.544 230.392 198.087 223.715 196.759C206.83 193.403 188.111 194.699 172.281 201.779C154.311 209.817 149.61 223.187 147.87 241.143L145.761 260.487C145.116 266.399 139.573 270.928 133.629 270.928C127.48 270.928 122.869 266.244 122.202 260.128L120.132 241.143C118.641 225.763 115.939 210.823 100.039 203.711C81.9024 195.599 63.6762 192.905 44.287 196.759C37.6094 198.087 33.244 204.544 34.4986 211.239C38.4198 232.162 58.9245 242.261 76.5227 249.959C89.5552 255.66 97.9771 268.54 97.9771 282.77L97.9771 318.904C97.9771 323.033 94.6341 326.38 90.5046 326.38H48.727C23.5749 326.38 0.972473 306.214 0.533203 281.053L0.533203 177.949C0.533203 168.068 6.99875 159.351 16.4544 156.483Z" fill="white" fill-opacity="0.15"/>
</svg>
