<svg width="134" height="327" viewBox="0 0 134 327" fill="none" xmlns="http://www.w3.org/2000/svg">
<path d="M181.883 27.4077C182.378 28.245 181.724 29.28 180.751 29.28C161.065 29.28 145.061 44.8665 144.685 64.2347C137.944 62.9761 130.959 62.8815 124.059 64.0441C123.582 44.7644 107.619 29.28 87.9973 29.28C87.0241 29.28 86.3696 28.2442 86.8643 27.4062C96.394 11.2667 114.102 0.421875 134.373 0.421875C154.645 0.421875 172.354 11.2674 181.883 27.4077Z" fill="white" fill-opacity="0.25"/>
<path d="M240.19 147.196C246.887 149.224 253.197 143.338 250.67 136.814C231.889 88.3277 176.302 68.4639 134.104 68.4639C91.8237 68.4639 34.9983 88.97 17.4405 137.116C15.0767 143.598 21.3699 149.29 27.9668 147.268L129.093 116.281C132.012 115.386 135.132 115.381 138.054 116.266L240.19 147.196Z" fill="white" fill-opacity="0.25"/>
<path d="M16.4534 156.53L129.178 122.342C132.08 121.462 135.177 121.46 138.08 122.335L251.513 156.547C260.985 159.404 267.467 168.129 267.467 178.023V281.1C267.028 306.26 244.426 326.427 219.274 326.427H177.497C173.368 326.427 170.023 323.087 170.023 318.957V282.817C170.023 268.587 178.445 255.707 191.478 250.006C208.948 242.364 229.615 232.028 233.502 211.286C234.757 204.591 230.391 198.133 223.714 196.806C206.829 193.45 188.11 194.746 172.28 201.826C154.31 209.864 149.609 223.234 147.869 241.19L145.76 260.533C145.115 266.446 139.572 270.975 133.628 270.975C127.479 270.975 122.868 266.291 122.201 260.175L120.131 241.19C118.64 225.81 115.938 210.87 100.038 203.758C81.9015 195.646 63.6752 192.952 44.286 196.806C37.6084 198.133 33.243 204.591 34.4977 211.286C38.4188 232.209 58.9236 242.308 76.5217 250.006C89.5542 255.707 97.9762 268.587 97.9762 282.817L97.9762 318.951C97.9762 323.08 94.6332 326.427 90.5036 326.427H48.726C23.5739 326.427 0.971497 306.26 0.532227 281.1L0.532227 177.996C0.532227 168.115 6.99777 159.398 16.4534 156.53Z" fill="white" fill-opacity="0.25"/>
</svg>
