<svg width="60" height="53" viewBox="0 0 60 53" fill="none" xmlns="http://www.w3.org/2000/svg">
<path d="M19.3155 39.4522L15.9614 29.2852C15.2797 27.2174 13.6163 25.6083 11.501 24.9738L1.08834 21.8319C-0.352996 21.4 -0.364672 19.4048 1.06498 18.95L11.4309 15.6591C13.5345 14.9902 15.1745 13.3581 15.8251 11.2827L19.0233 1.06595C19.4635 -0.344436 21.4969 -0.359724 21.9605 1.04684L25.3145 11.2139C25.9963 13.2779 27.6596 14.887 29.7749 15.5253L40.1876 18.6633C41.6289 19.0991 41.6445 21.0904 40.211 21.5453L29.845 24.8362C27.7414 25.5051 26.1014 27.141 25.4509 29.2164L22.2527 39.4293C21.8125 40.8435 19.779 40.8588 19.3155 39.4522Z" fill="#BDB9C5"/>
<path d="M48.4169 52.4366L46.7715 47.3531C46.4371 46.3191 45.6211 45.5146 44.5834 45.1973L39.4753 43.6264C38.7682 43.4105 38.7625 42.4129 39.4638 42.1854L44.549 40.54C45.581 40.2056 46.3855 39.3895 46.7047 38.3518L48.2736 33.2434C48.4895 32.5382 49.4871 32.5306 49.7145 33.2339L51.3599 38.3174C51.6943 39.3494 52.5103 40.154 53.548 40.4731L58.6561 42.0421C59.3632 42.26 59.3708 43.2557 58.6675 43.4831L53.5824 45.1285C52.5504 45.463 51.7459 46.2809 51.4267 47.3187L49.8578 52.4251C49.6419 53.1322 48.6443 53.1399 48.4169 52.4366Z" fill="#BDB9C5"/>
</svg>
