<svg width="101" height="101" viewBox="0 0 101 101" fill="none" xmlns="http://www.w3.org/2000/svg">
<rect x="0.473633" y="0.219238" width="100" height="100" rx="50" fill="url(#paint0_linear_4368_20288)"/>
<g clip-path="url(#clip0_4368_20288)">
<path fill-rule="evenodd" clip-rule="evenodd" d="M46.3356 87.4354V81.6289C46.3356 80.9039 45.7478 80.3162 45.0228 80.3162C44.2978 80.3162 43.71 80.9039 43.71 81.6289V87.4354C43.71 90.6093 41.1278 93.1915 37.954 93.1915H32.1475C31.4225 93.1915 30.8347 93.7792 30.8347 94.5042C30.8347 95.2292 31.4225 95.817 32.1475 95.817H37.954C42.5756 95.817 46.3356 92.057 46.3356 87.4354Z" fill="white"/>
<path d="M46.3356 87.4354V81.6289C46.3356 80.9039 45.7478 80.3162 45.0228 80.3162C44.2978 80.3162 43.71 80.9039 43.71 81.6289V87.4354C43.71 90.6093 41.1278 93.1915 37.954 93.1915H32.1475C31.4225 93.1915 30.8347 93.7792 30.8347 94.5042C30.8347 95.2292 31.4225 95.817 32.1475 95.817H37.954C42.5756 95.817 46.3356 92.057 46.3356 87.4354" stroke="white" stroke-width="0.8"/>
<path fill-rule="evenodd" clip-rule="evenodd" d="M10.1334 94.5042C10.1334 93.7792 9.54564 93.1915 8.82063 93.1915H3.01413C-0.159705 93.1915 -2.74188 90.6093 -2.74188 87.4354V81.6289C-2.74188 80.9039 -3.32965 80.3162 -4.05466 80.3162C-4.77966 80.3162 -5.36743 80.9039 -5.36743 81.6289V87.4354C-5.36743 92.057 -1.60744 95.817 3.01413 95.817H8.82063C9.54564 95.817 10.1334 95.2292 10.1334 94.5042Z" fill="white"/>
<path d="M10.1334 94.5042C10.1334 93.7792 9.54564 93.1915 8.82063 93.1915H3.01413C-0.159705 93.1915 -2.74188 90.6093 -2.74188 87.4354V81.6289C-2.74188 80.9039 -3.32965 80.3162 -4.05466 80.3162C-4.77966 80.3162 -5.36743 80.9039 -5.36743 81.6289V87.4354C-5.36743 92.057 -1.60744 95.817 3.01413 95.817H8.82063C9.54564 95.817 10.1334 95.2292 10.1334 94.5042" stroke="white" stroke-width="0.8"/>
<path fill-rule="evenodd" clip-rule="evenodd" d="M-2.74188 58.3018V52.4953C-2.74188 49.3214 -0.159705 46.7393 3.01413 46.7393H8.82063C9.54564 46.7393 10.1334 46.1515 10.1334 45.4265C10.1334 44.7015 9.54564 44.1138 8.82063 44.1138H3.01413C-1.60744 44.1138 -5.36743 47.8737 -5.36743 52.4953V58.3018C-5.36743 59.0268 -4.77966 59.6146 -4.05466 59.6146C-3.32965 59.6146 -2.74188 59.0268 -2.74188 58.3018Z" fill="white"/>
<path d="M-2.74188 58.3018V52.4953C-2.74188 49.3214 -0.159705 46.7393 3.01413 46.7393H8.82063C9.54564 46.7393 10.1334 46.1515 10.1334 45.4265C10.1334 44.7015 9.54564 44.1138 8.82063 44.1138H3.01413C-1.60744 44.1138 -5.36743 47.8737 -5.36743 52.4953V58.3018C-5.36743 59.0268 -4.77966 59.6146 -4.05466 59.6146C-3.32965 59.6146 -2.74188 59.0268 -2.74188 58.3018" stroke="white" stroke-width="0.8"/>
<path fill-rule="evenodd" clip-rule="evenodd" d="M46.3356 58.3018V52.4953C46.3356 47.8737 42.5756 44.1138 37.954 44.1138H32.1475C31.4225 44.1138 30.8347 44.7015 30.8347 45.4265C30.8347 46.1515 31.4225 46.7393 32.1475 46.7393H37.954C41.1278 46.7393 43.71 49.3214 43.71 52.4953V58.3018C43.71 59.0268 44.2978 59.6146 45.0228 59.6146C45.7478 59.6146 46.3356 59.0268 46.3356 58.3018Z" fill="white"/>
<path d="M46.3356 58.3018V52.4953C46.3356 47.8737 42.5756 44.1138 37.954 44.1138H32.1475C31.4225 44.1138 30.8347 44.7015 30.8347 45.4265C30.8347 46.1515 31.4225 46.7393 32.1475 46.7393H37.954C41.1278 46.7393 43.71 49.3214 43.71 52.4953V58.3018C43.71 59.0268 44.2978 59.6146 45.0228 59.6146C45.7478 59.6146 46.3356 59.0268 46.3356 58.3018" stroke="white" stroke-width="0.8"/>
<path fill-rule="evenodd" clip-rule="evenodd" d="M29.5438 82.3274C30.0969 81.8165 30.1311 80.954 29.6202 80.4009C29.1093 79.8478 28.2468 79.8136 27.6938 80.3245C25.7257 82.1424 23.1653 83.1435 20.4842 83.1435C17.8031 83.1435 15.2426 82.1424 13.2746 80.3245C12.7215 79.8136 11.8591 79.8479 11.3482 80.4009C10.8373 80.954 10.8715 81.8165 11.4246 82.3274C13.8979 84.6119 17.1153 85.87 20.4842 85.87C23.8531 85.87 27.0705 84.6119 29.5438 82.3274Z" fill="white"/>
<path d="M29.5438 82.3274C30.0969 81.8165 30.1311 80.954 29.6202 80.4009C29.1093 79.8478 28.2468 79.8136 27.6938 80.3245C25.7257 82.1424 23.1653 83.1435 20.4842 83.1435C17.8031 83.1435 15.2426 82.1424 13.2746 80.3245C12.7215 79.8136 11.8591 79.8479 11.3482 80.4009C10.8373 80.954 10.8715 81.8165 11.4246 82.3274C13.8979 84.6119 17.1153 85.87 20.4842 85.87C23.8531 85.87 27.0705 84.6119 29.5438 82.3274" stroke="white" stroke-width="0.8"/>
<path fill-rule="evenodd" clip-rule="evenodd" d="M23.2107 73.2978V63.6035C23.2107 62.8506 22.6003 62.2402 21.8474 62.2402C21.0945 62.2402 20.4841 62.8506 20.4841 63.6035V73.2978C20.4841 73.7155 20.1444 74.0552 19.7268 74.0552H18.616C17.863 74.0552 17.2527 74.6655 17.2527 75.4185C17.2527 76.1714 17.863 76.7817 18.616 76.7817H19.7268C21.6478 76.7817 23.2107 75.2189 23.2107 73.2978Z" fill="white"/>
<path d="M23.2107 73.2978V63.6035C23.2107 62.8506 22.6003 62.2402 21.8474 62.2402C21.0945 62.2402 20.4841 62.8506 20.4841 63.6035V73.2978C20.4841 73.7155 20.1444 74.0552 19.7268 74.0552H18.616C17.863 74.0552 17.2527 74.6655 17.2527 75.4185C17.2527 76.1714 17.863 76.7817 18.616 76.7817H19.7268C21.6478 76.7817 23.2107 75.2189 23.2107 73.2978" stroke="white" stroke-width="0.8"/>
<path fill-rule="evenodd" clip-rule="evenodd" d="M32.6019 67.4156V63.5278C32.6019 62.8167 32.0255 62.2402 31.3144 62.2402C30.6033 62.2402 30.0269 62.8167 30.0269 63.5278V67.4156C30.0269 68.1267 30.6033 68.7031 31.3144 68.7031C32.0255 68.7031 32.6019 68.1267 32.6019 67.4156Z" fill="white" stroke="white" stroke-width="0.8"/>
<path fill-rule="evenodd" clip-rule="evenodd" d="M9.95647 68.7031C9.2454 68.7031 8.66895 68.1267 8.66895 67.4156V63.5278C8.66895 62.8167 9.2454 62.2402 9.95647 62.2402C10.6675 62.2402 11.244 62.8167 11.244 63.5278V67.4156C11.244 68.1267 10.6675 68.7031 9.95647 68.7031Z" fill="white"/>
<path d="M9.95647 68.7031V68.7031C9.2454 68.7031 8.66895 68.1267 8.66895 67.4156V63.5278C8.66895 62.8167 9.2454 62.2402 9.95647 62.2402C10.6675 62.2402 11.244 62.8167 11.244 63.5278V67.4156C11.244 68.1267 10.6675 68.7031 9.95647 68.7031" stroke="white" stroke-width="0.8"/>
<path d="M53.1608 24.6143C52.8558 24.6143 52.5507 24.5228 52.2762 24.3398C51.5746 23.8517 51.4221 22.9061 51.9101 22.2045C54.93 17.934 58.7735 14.5786 63.349 12.2299C72.9271 7.28827 85.1896 7.25777 94.7982 12.1994C99.3738 14.5481 103.217 17.873 106.237 22.113C106.725 22.7841 106.573 23.7602 105.871 24.2483C105.169 24.7363 104.224 24.5838 103.736 23.8822C100.99 20.0388 97.5131 17.0189 93.3951 14.9142C84.6405 10.4301 73.4457 10.4301 64.7217 14.9447C60.5732 17.0799 57.0958 20.1303 54.3504 23.9738C54.1064 24.4008 53.6489 24.6143 53.1608 24.6143ZM72.2256 61.4322C71.829 61.4322 71.4325 61.2797 71.1579 60.9747C68.5041 58.3208 67.0704 56.6126 65.0267 52.9217C62.922 49.1698 61.8238 44.5942 61.8238 39.6831C61.8238 30.6235 69.5717 23.2417 79.0889 23.2417C88.606 23.2417 96.3539 30.6235 96.3539 39.6831C96.3539 40.5372 95.6828 41.2083 94.8287 41.2083C93.9746 41.2083 93.3036 40.5372 93.3036 39.6831C93.3036 32.3012 86.9283 26.292 79.0889 26.292C71.2494 26.292 64.8742 32.3012 64.8742 39.6831C64.8742 44.0756 65.8503 48.1326 67.711 51.427C69.6633 54.9349 71.0054 56.4296 73.3542 58.8089C73.9338 59.419 73.9338 60.3646 73.3542 60.9747C73.0187 61.2797 72.6221 61.4322 72.2256 61.4322ZM94.0967 55.789C90.4667 55.789 87.2638 54.8739 84.6405 53.0742C80.0955 49.9934 77.3807 44.9908 77.3807 39.6831C77.3807 38.829 78.0518 38.1579 78.9059 38.1579C79.76 38.1579 80.431 38.829 80.431 39.6831C80.431 43.9841 82.6273 48.0411 86.3487 50.5424C88.5145 52.0066 91.0463 52.7082 94.0967 52.7082C94.8288 52.7082 96.0489 52.6167 97.269 52.4031C98.0926 52.2506 98.8857 52.7997 99.0383 53.6538C99.1908 54.4774 98.6417 55.2705 97.7876 55.423C96.0489 55.7585 94.5237 55.789 94.0967 55.789ZM87.9654 62.0728C87.8434 62.0728 87.6909 62.0423 87.5689 62.0118C82.7188 60.6696 79.5464 58.8699 76.2215 55.606C71.951 51.366 69.6023 45.7228 69.6023 39.6831C69.6023 34.7415 73.8118 30.7151 78.9974 30.7151C84.183 30.7151 88.3925 34.7415 88.3925 39.6831C88.3925 42.947 91.2293 45.6008 94.7372 45.6008C98.2452 45.6008 101.082 42.947 101.082 39.6831C101.082 28.1833 91.1683 18.8491 78.9669 18.8491C70.3038 18.8491 62.3729 23.6687 58.804 31.1421C57.6143 33.6129 57.0043 36.5107 57.0043 39.6831C57.0043 42.0624 57.2178 45.8144 59.048 50.6949C59.353 51.488 58.9565 52.3726 58.1634 52.6472C57.3703 52.9522 56.4857 52.5252 56.2112 51.7626C54.7165 47.7666 53.9844 43.8011 53.9844 39.6831C53.9844 36.0227 54.686 32.6978 56.0586 29.7999C60.1156 21.2894 69.1142 15.7683 78.9669 15.7683C92.846 15.7683 104.132 26.4751 104.132 39.6526C104.132 44.5942 99.9229 48.6207 94.7372 48.6207C89.5516 48.6207 85.3421 44.5942 85.3421 39.6526C85.3421 36.3887 82.5053 33.7349 78.9974 33.7349C75.4895 33.7349 72.6526 36.3887 72.6526 39.6526C72.6526 44.8687 74.6658 49.7493 78.3568 53.4098C81.2546 56.2771 84.0305 57.8633 88.3315 59.0529C89.1551 59.2665 89.6126 60.1206 89.3991 60.9137C89.2466 61.6152 88.606 62.0728 87.9654 62.0728Z" fill="white"/>
<path d="M97.7249 8.60007C97.4809 8.60007 97.2369 8.53906 97.0233 8.41705C91.1666 5.39719 86.103 4.11604 80.0328 4.11604C73.9931 4.11604 68.2584 5.54971 63.0423 8.41705C62.3102 8.8136 61.3951 8.53906 60.9681 7.80698C60.5715 7.07489 60.846 6.12928 61.5781 5.73273C67.2518 2.65186 73.4745 1.06567 80.0328 1.06567C86.5301 1.06567 92.2038 2.49934 98.4265 5.70223C99.1891 6.09877 99.4636 7.01388 99.0671 7.74597C98.7925 8.29503 98.274 8.60007 97.7249 8.60007Z" fill="white"/>
</g>
<defs>
<linearGradient id="paint0_linear_4368_20288" x1="0.473633" y1="0.219238" x2="102.613" y2="2.45435" gradientUnits="userSpaceOnUse">
<stop stop-color="#587EFF"/>
<stop offset="1" stop-color="#445FB4"/>
</linearGradient>
<clipPath id="clip0_4368_20288">
<rect x="0.463135" y="0.20874" width="100.021" height="100.021" rx="50.0105" fill="white"/>
</clipPath>
</defs>
</svg>
