<svg width="24" height="25" viewBox="0 0 24 25" fill="none" xmlns="http://www.w3.org/2000/svg">
<path d="M4.44734 10.3791C4.35844 10.3791 4.26953 10.3521 4.18951 10.2981C3.98503 10.1541 3.94057 9.87513 4.08282 9.66812C4.963 8.40812 6.08323 7.41812 7.41684 6.72512C10.2085 5.26711 13.7826 5.25811 16.5832 6.71612C17.9168 7.40912 19.037 8.39012 19.9172 9.64112C20.0594 9.83912 20.015 10.1271 19.8105 10.2711C19.606 10.4151 19.3304 10.3701 19.1881 10.1631C18.388 9.02912 17.3744 8.13812 16.1742 7.51712C13.6226 6.19412 10.3597 6.19412 7.81692 7.52612C6.60779 8.15612 5.59425 9.05612 4.79408 10.1901C4.72296 10.3161 4.5896 10.3791 4.44734 10.3791ZM10.004 21.2422C9.88846 21.2422 9.77288 21.1972 9.69286 21.1072C8.91937 20.3241 8.50151 19.8202 7.90583 18.7311C7.29237 17.6241 6.97231 16.2741 6.97231 14.8251C6.97231 12.1521 9.23054 9.97413 12.0044 9.97413C14.7783 9.97413 17.0366 12.1521 17.0366 14.8251C17.0366 15.0771 16.841 15.2751 16.5921 15.2751C16.3431 15.2751 16.1475 15.0771 16.1475 14.8251C16.1475 12.6471 14.2894 10.8741 12.0044 10.8741C9.71953 10.8741 7.86138 12.6471 7.86138 14.8251C7.86138 16.1211 8.14588 17.3181 8.68821 18.2901C9.25722 19.3251 9.64841 19.7661 10.333 20.4681C10.5019 20.6481 10.5019 20.9272 10.333 21.1072C10.2352 21.1972 10.1196 21.2422 10.004 21.2422ZM16.3787 19.5771C15.3207 19.5771 14.3872 19.3071 13.6226 18.7761C12.2978 17.8671 11.5066 16.3911 11.5066 14.8251C11.5066 14.5731 11.7022 14.3751 11.9511 14.3751C12.2 14.3751 12.3956 14.5731 12.3956 14.8251C12.3956 16.0941 13.0358 17.2911 14.1204 18.0291C14.7517 18.4611 15.4896 18.6681 16.3787 18.6681C16.5921 18.6681 16.9477 18.6411 17.3033 18.5781C17.5434 18.5331 17.7745 18.6951 17.819 18.9471C17.8634 19.1901 17.7034 19.4241 17.4544 19.4691C16.9477 19.5681 16.5031 19.5771 16.3787 19.5771ZM14.5916 21.4312C14.5561 21.4312 14.5116 21.4222 14.4761 21.4132C13.0624 21.0172 12.1378 20.4861 11.1687 19.5231C9.92402 18.2721 9.23944 16.6071 9.23944 14.8251C9.23944 13.3671 10.4664 12.1791 11.9778 12.1791C13.4892 12.1791 14.7161 13.3671 14.7161 14.8251C14.7161 15.7881 15.5429 16.5711 16.5654 16.5711C17.5878 16.5711 18.4146 15.7881 18.4146 14.8251C18.4146 11.4321 15.5252 8.67812 11.9689 8.67812C9.44392 8.67812 7.13234 10.1001 6.09212 12.3051C5.74539 13.0341 5.56757 13.8891 5.56757 14.8251C5.56757 15.5271 5.62981 16.6341 6.16325 18.0741C6.25216 18.3081 6.13658 18.5691 5.90542 18.6501C5.67426 18.7401 5.41643 18.6141 5.33641 18.3891C4.90077 17.2101 4.68739 16.0401 4.68739 14.8251C4.68739 13.7451 4.89188 12.7641 5.29196 11.9091C6.47443 9.39812 9.09718 7.76912 11.9689 7.76912C16.0142 7.76912 19.3037 10.9281 19.3037 14.8161C19.3037 16.2741 18.0768 17.4621 16.5654 17.4621C15.054 17.4621 13.827 16.2741 13.827 14.8161C13.827 13.8531 13.0002 13.0701 11.9778 13.0701C10.9553 13.0701 10.1285 13.8531 10.1285 14.8161C10.1285 16.3551 10.7153 17.7951 11.7911 18.8751C12.6357 19.7211 13.4447 20.1891 14.6983 20.5401C14.9384 20.6031 15.0717 20.8552 15.0095 21.0892C14.9651 21.2962 14.7783 21.4312 14.5916 21.4312Z" fill="white"/>
<path d="M17.4362 5.65416C17.3651 5.65416 17.2939 5.63616 17.2317 5.60016C15.5247 4.70916 14.0488 4.33115 12.2796 4.33115C10.5192 4.33115 8.84776 4.75416 7.32745 5.60016C7.11407 5.71716 6.84735 5.63616 6.72288 5.42016C6.6073 5.20416 6.68732 4.92516 6.90069 4.80816C8.55436 3.89915 10.3681 3.43115 12.2796 3.43115C14.1733 3.43115 15.827 3.85415 17.6407 4.79916C17.8629 4.91616 17.9429 5.18616 17.8274 5.40216C17.7474 5.56416 17.5962 5.65416 17.4362 5.65416Z" fill="white"/>
<path d="M4.44734 10.3791C4.35844 10.3791 4.26953 10.3521 4.18951 10.2981C3.98503 10.1541 3.94057 9.87513 4.08282 9.66812C4.963 8.40812 6.08323 7.41812 7.41684 6.72512C10.2085 5.26711 13.7826 5.25811 16.5832 6.71612C17.9168 7.40912 19.037 8.39012 19.9172 9.64112C20.0594 9.83912 20.015 10.1271 19.8105 10.2711C19.606 10.4151 19.3304 10.3701 19.1881 10.1631C18.388 9.02912 17.3744 8.13812 16.1742 7.51712C13.6226 6.19412 10.3597 6.19412 7.81692 7.52612C6.60779 8.15612 5.59425 9.05612 4.79408 10.1901C4.72296 10.3161 4.5896 10.3791 4.44734 10.3791ZM10.004 21.2422C9.88846 21.2422 9.77288 21.1972 9.69286 21.1072C8.91937 20.3241 8.50151 19.8202 7.90583 18.7311C7.29237 17.6241 6.97231 16.2741 6.97231 14.8251C6.97231 12.1521 9.23054 9.97413 12.0044 9.97413C14.7783 9.97413 17.0366 12.1521 17.0366 14.8251C17.0366 15.0771 16.841 15.2751 16.5921 15.2751C16.3431 15.2751 16.1475 15.0771 16.1475 14.8251C16.1475 12.6471 14.2894 10.8741 12.0044 10.8741C9.71953 10.8741 7.86138 12.6471 7.86138 14.8251C7.86138 16.1211 8.14588 17.3181 8.68821 18.2901C9.25722 19.3251 9.64841 19.7661 10.333 20.4681C10.5019 20.6481 10.5019 20.9272 10.333 21.1072C10.2352 21.1972 10.1196 21.2422 10.004 21.2422ZM16.3787 19.5771C15.3207 19.5771 14.3872 19.3071 13.6226 18.7761C12.2978 17.8671 11.5066 16.3911 11.5066 14.8251C11.5066 14.5731 11.7022 14.3751 11.9511 14.3751C12.2 14.3751 12.3956 14.5731 12.3956 14.8251C12.3956 16.0941 13.0358 17.2911 14.1204 18.0291C14.7517 18.4611 15.4896 18.6681 16.3787 18.6681C16.5921 18.6681 16.9477 18.6411 17.3033 18.5781C17.5434 18.5331 17.7745 18.6951 17.819 18.9471C17.8634 19.1901 17.7034 19.4241 17.4544 19.4691C16.9477 19.5681 16.5031 19.5771 16.3787 19.5771ZM14.5916 21.4312C14.5561 21.4312 14.5116 21.4222 14.4761 21.4132C13.0624 21.0172 12.1378 20.4861 11.1687 19.5231C9.92402 18.2721 9.23944 16.6071 9.23944 14.8251C9.23944 13.3671 10.4664 12.1791 11.9778 12.1791C13.4892 12.1791 14.7161 13.3671 14.7161 14.8251C14.7161 15.7881 15.5429 16.5711 16.5654 16.5711C17.5878 16.5711 18.4146 15.7881 18.4146 14.8251C18.4146 11.4321 15.5252 8.67812 11.9689 8.67812C9.44392 8.67812 7.13234 10.1001 6.09212 12.3051C5.74539 13.0341 5.56757 13.8891 5.56757 14.8251C5.56757 15.5271 5.62981 16.6341 6.16325 18.0741C6.25216 18.3081 6.13658 18.5691 5.90542 18.6501C5.67426 18.7401 5.41643 18.6141 5.33641 18.3891C4.90077 17.2101 4.68739 16.0401 4.68739 14.8251C4.68739 13.7451 4.89188 12.7641 5.29196 11.9091C6.47443 9.39812 9.09718 7.76912 11.9689 7.76912C16.0142 7.76912 19.3037 10.9281 19.3037 14.8161C19.3037 16.2741 18.0768 17.4621 16.5654 17.4621C15.054 17.4621 13.827 16.2741 13.827 14.8161C13.827 13.8531 13.0002 13.0701 11.9778 13.0701C10.9553 13.0701 10.1285 13.8531 10.1285 14.8161C10.1285 16.3551 10.7153 17.7951 11.7911 18.8751C12.6357 19.7211 13.4447 20.1891 14.6983 20.5401C14.9384 20.6031 15.0717 20.8552 15.0095 21.0892C14.9651 21.2962 14.7783 21.4312 14.5916 21.4312Z" stroke="white" stroke-width="0.5"/>
<path d="M17.4362 5.65416C17.3651 5.65416 17.2939 5.63616 17.2317 5.60016C15.5247 4.70916 14.0488 4.33115 12.2796 4.33115C10.5192 4.33115 8.84776 4.75416 7.32745 5.60016C7.11407 5.71716 6.84735 5.63616 6.72288 5.42016C6.6073 5.20416 6.68732 4.92516 6.90069 4.80816C8.55436 3.89915 10.3681 3.43115 12.2796 3.43115C14.1733 3.43115 15.827 3.85415 17.6407 4.79916C17.8629 4.91616 17.9429 5.18616 17.8274 5.40216C17.7474 5.56416 17.5962 5.65416 17.4362 5.65416Z" stroke="white" stroke-width="0.5"/>
</svg>
