<svg width="20" height="21" viewBox="0 0 20 21" fill="none" xmlns="http://www.w3.org/2000/svg">
<path fill-rule="evenodd" clip-rule="evenodd" d="M1.87007 9.76061H5.18306C5.35787 7.2275 6.23224 5.17317 7.0993 3.71715C7.24259 3.47653 7.38596 3.25174 7.52636 3.04329C4.51219 3.91181 2.23689 6.54374 1.87007 9.76061ZM5.18307 11.5926H1.87007C2.23689 14.8094 4.51225 17.4414 7.52647 18.3099C7.38604 18.1014 7.24262 17.8766 7.0993 17.6359C6.23225 16.1798 5.35789 14.1256 5.18307 11.5926ZM7.00643 11.5926H12.3876C12.2173 13.7121 11.48 15.4434 10.7357 16.6934C10.3645 17.3167 9.994 17.8159 9.69704 18.178C9.40008 17.8159 9.02961 17.3167 8.65839 16.6934C7.91407 15.4434 7.17677 13.7121 7.00643 11.5926ZM12.3877 9.76061H7.00642C7.17674 7.64101 7.91406 5.9096 8.65839 4.65967C9.02961 4.03631 9.40008 3.53709 9.69704 3.17504C9.994 3.53709 10.3645 4.03631 10.7357 4.65967C11.48 5.9096 12.2173 7.64101 12.3877 9.76061ZM14.211 11.5926C14.0362 14.1256 13.1618 16.1798 12.2948 17.6359C12.1515 17.8766 12.008 18.1014 11.8676 18.3099C14.8818 17.4414 17.1572 14.8094 17.524 11.5926H14.211ZM17.524 9.76061H14.211C14.0362 7.2275 13.1618 5.17317 12.2948 3.71715C12.1515 3.47653 12.0081 3.25174 11.8677 3.04328C14.8819 3.9118 17.1572 6.54374 17.524 9.76061ZM9.69704 0.90625C4.34151 0.90625 0 5.28057 0 10.6766C0 16.0726 4.34151 20.4469 9.69704 20.4469C15.0526 20.4469 19.3941 16.0726 19.3941 10.6766C19.3941 5.28057 15.0526 0.90625 9.69704 0.90625Z" fill="#242424"/>
</svg>
