<svg width="20" height="21" viewBox="0 0 20 21" fill="none" xmlns="http://www.w3.org/2000/svg">
<path fill-rule="evenodd" clip-rule="evenodd" d="M1.87007 9.83092H5.18306C5.35787 7.29781 6.23224 5.24349 7.0993 3.78746C7.24259 3.54684 7.38596 3.32205 7.52636 3.1136C4.51219 3.98212 2.23689 6.61406 1.87007 9.83092ZM5.18307 11.6629H1.87007C2.23689 14.8797 4.51225 17.5117 7.52647 18.3802C7.38604 18.1717 7.24262 17.9469 7.0993 17.7062C6.23225 16.2502 5.35789 14.1959 5.18307 11.6629ZM7.00643 11.6629H12.3876C12.2173 13.7824 11.48 15.5137 10.7357 16.7637C10.3645 17.3871 9.994 17.8862 9.69704 18.2483C9.40008 17.8862 9.02961 17.3871 8.65839 16.7637C7.91407 15.5137 7.17677 13.7824 7.00643 11.6629ZM12.3877 9.83092H7.00642C7.17674 7.71133 7.91406 5.97991 8.65839 4.72998C9.02961 4.10662 9.40008 3.60741 9.69704 3.24536C9.994 3.60741 10.3645 4.10662 10.7357 4.72998C11.48 5.97991 12.2173 7.71133 12.3877 9.83092ZM14.211 11.6629C14.0362 14.1959 13.1618 16.2502 12.2948 17.7062C12.1515 17.9469 12.008 18.1717 11.8676 18.3802C14.8818 17.5117 17.1572 14.8797 17.524 11.6629H14.211ZM17.524 9.83092H14.211C14.0362 7.29781 13.1618 5.24349 12.2948 3.78746C12.1515 3.54684 12.0081 3.32205 11.8677 3.11359C14.8819 3.98211 17.1572 6.61406 17.524 9.83092ZM9.69704 0.976562C4.34151 0.976562 0 5.35089 0 10.7469C0 16.1429 4.34151 20.5172 9.69704 20.5172C15.0526 20.5172 19.3941 16.1429 19.3941 10.7469C19.3941 5.35089 15.0526 0.976562 9.69704 0.976562Z" fill="white"/>
</svg>
