<svg width="20" height="21" viewBox="0 0 20 21" fill="none" xmlns="http://www.w3.org/2000/svg">
<path d="M8.6 12.7312L6.425 10.5562C6.24167 10.3728 6.01667 10.2812 5.75 10.2812C5.48333 10.2812 5.25 10.3812 5.05 10.5812C4.86667 10.7645 4.775 10.9978 4.775 11.2812C4.775 11.5645 4.86667 11.7978 5.05 11.9812L7.9 14.8312C8.08333 15.0145 8.31667 15.1062 8.6 15.1062C8.88333 15.1062 9.11667 15.0145 9.3 14.8312L14.975 9.15615C15.1583 8.97282 15.25 8.74782 15.25 8.48115C15.25 8.21449 15.15 7.98115 14.95 7.78115C14.7667 7.59782 14.5333 7.50615 14.25 7.50615C13.9667 7.50615 13.7333 7.59782 13.55 7.78115L8.6 12.7312ZM10 20.9312C8.61667 20.9312 7.31667 20.6685 6.1 20.1432C4.88333 19.6185 3.825 18.9062 2.925 18.0062C2.025 17.1062 1.31267 16.0478 0.788 14.8312C0.262667 13.6145 0 12.3145 0 10.9312C0 9.54782 0.262667 8.24782 0.788 7.03115C1.31267 5.81449 2.025 4.75615 2.925 3.85615C3.825 2.95615 4.88333 2.24349 6.1 1.71815C7.31667 1.19349 8.61667 0.931152 10 0.931152C11.3833 0.931152 12.6833 1.19349 13.9 1.71815C15.1167 2.24349 16.175 2.95615 17.075 3.85615C17.975 4.75615 18.6873 5.81449 19.212 7.03115C19.7373 8.24782 20 9.54782 20 10.9312C20 12.3145 19.7373 13.6145 19.212 14.8312C18.6873 16.0478 17.975 17.1062 17.075 18.0062C16.175 18.9062 15.1167 19.6185 13.9 20.1432C12.6833 20.6685 11.3833 20.9312 10 20.9312Z" fill="#4FE79C"/>
</svg>
