<svg width="166" height="42" viewBox="0 0 166 42" fill="none" xmlns="http://www.w3.org/2000/svg">
    <path d="M22.9069 4.32092C22.9666 4.42493 22.8876 4.5535 22.7701 4.5535C20.3907 4.5535 18.4564 6.48965 18.411 8.89557C17.5963 8.73922 16.7521 8.72747 15.9181 8.87189C15.8605 6.47697 13.9311 4.5535 11.5595 4.5535C11.4419 4.5535 11.3628 4.42483 11.4226 4.32074C12.5744 2.31589 14.7147 0.96875 17.1647 0.96875C19.6148 0.96875 21.7551 2.31597 22.9069 4.32092Z" fill="url(#paint0_linear_2358_8384)" />
    <path d="M29.954 19.201C30.7634 19.4529 31.526 18.7218 31.2206 17.9113C28.9507 11.8884 22.2323 9.42091 17.1321 9.42091C12.022 9.42091 5.15394 11.9682 3.03186 17.9489C2.74616 18.7541 3.50679 19.4611 4.3041 19.21L16.5265 15.3607C16.8793 15.2496 17.2563 15.249 17.6095 15.3589L29.954 19.201Z" fill="url(#paint1_linear_2358_8384)" />
    <path d="M2.91256 20.3605L16.5368 16.1137C16.8875 16.0044 17.2618 16.0041 17.6127 16.1128L31.3225 20.3626C32.4674 20.7174 33.2508 21.8013 33.2508 23.0303V35.8345C33.1977 38.9599 30.4659 41.465 27.426 41.465H22.3768C21.8777 41.465 21.4735 41.0501 21.4735 40.5371V36.0478C21.4735 34.2801 22.4914 32.6801 24.0665 31.972C26.178 31.0228 28.6758 29.7388 29.1456 27.1622C29.2973 26.3306 28.7697 25.5284 27.9626 25.3636C25.9218 24.9466 23.6594 25.1077 21.7462 25.9872C19.5743 26.9856 19.0061 28.6464 18.7958 30.8769L18.5409 33.2797C18.463 34.0141 17.7931 34.5767 17.0746 34.5767C16.3314 34.5767 15.7741 33.995 15.6935 33.2352L15.4433 30.8769C15.2631 28.9664 14.9365 27.1105 13.0148 26.2271C10.8228 25.2194 8.61992 24.8848 6.27649 25.3636C5.46942 25.5284 4.9418 26.3306 5.09344 27.1622C5.56735 29.7612 8.04562 31.0158 10.1726 31.972C11.7477 32.6801 12.7656 34.2801 12.7656 36.0478V40.5363C12.7656 41.0493 12.3616 41.465 11.8625 41.465H6.81311C3.77316 41.465 1.04137 38.9599 0.988281 35.8345V23.027C0.988281 21.7996 1.76973 20.7167 2.91256 20.3605Z" fill="url(#paint2_linear_2358_8384)" />
    <path d="M43.3584 36.5189V13.9531H53.5683C55.9977 13.9531 57.8722 14.4759 59.1916 15.5215C60.511 16.5671 61.1708 17.9968 61.1708 19.8106C61.1708 21.155 60.7728 22.2966 59.977 23.2355C59.2021 24.1744 58.134 24.8039 56.7726 25.124V24.6118C58.3643 24.8892 59.5895 25.5081 60.4482 26.4683C61.3278 27.4072 61.7676 28.6342 61.7676 30.1492C61.7676 32.1551 61.066 33.7235 59.6628 34.8544C58.2806 35.964 56.3643 36.5189 53.9139 36.5189H43.3584ZM48.0392 32.8059H53.317C54.5317 32.8059 55.4637 32.5712 56.1129 32.1017C56.7622 31.6323 57.0868 30.8854 57.0868 29.8612C57.0868 28.8156 56.7622 28.0687 56.1129 27.6206C55.4637 27.1511 54.5317 26.9164 53.317 26.9164H48.0392V32.8059ZM48.0392 23.2355H52.6887C53.9662 23.2355 54.9087 23.0008 55.516 22.5313C56.1234 22.0618 56.4271 21.3577 56.4271 20.4188C56.4271 19.5012 56.1234 18.8077 55.516 18.3382C54.9087 17.8688 53.9662 17.6341 52.6887 17.6341H48.0392V23.2355Z" fill="#242424" />
    <path d="M64.8868 36.5189V24.5798C64.8868 23.8756 64.8659 23.1608 64.824 22.4353C64.8031 21.7098 64.7507 20.9949 64.6669 20.2907H69.2221L69.7562 25.0279H69.0336C69.2431 23.8756 69.5781 22.9261 70.0389 22.1792C70.5206 21.4324 71.107 20.8776 71.7981 20.5148C72.5102 20.152 73.3165 19.9707 74.2171 19.9707C74.615 19.9707 74.9292 19.992 75.1596 20.0347C75.3899 20.056 75.6203 20.1094 75.8507 20.1947L75.8193 24.4518C75.3795 24.2597 75.0025 24.1424 74.6883 24.0997C74.3951 24.0357 74.0181 24.0037 73.5574 24.0037C72.6778 24.0037 71.9448 24.1744 71.3583 24.5158C70.7929 24.8572 70.3635 25.3587 70.0703 26.0202C69.7981 26.6817 69.6619 27.4819 69.6619 28.4208V36.5189H64.8868Z" fill="#242424" />
    <path d="M83.8694 36.8709C82.4871 36.8709 81.2724 36.5295 80.2253 35.8467C79.1781 35.1638 78.3613 34.1929 77.7749 32.9339C77.1885 31.675 76.8952 30.1599 76.8952 28.3888C76.8952 26.639 77.1885 25.1346 77.7749 23.8756C78.3613 22.6167 79.1781 21.6564 80.2253 20.9949C81.2724 20.3121 82.4871 19.9707 83.8694 19.9707C85.1469 19.9707 86.2884 20.2907 87.2936 20.9309C88.3199 21.5497 88.9901 22.3926 89.3042 23.4595H88.9586L89.3356 20.2907H93.8908C93.828 20.9949 93.7652 21.7098 93.7023 22.4353C93.6604 23.1395 93.6395 23.833 93.6395 24.5158V36.5189H88.9272L88.8958 33.4781H89.2728C88.9377 34.5023 88.2675 35.3239 87.2622 35.9427C86.2569 36.5615 85.126 36.8709 83.8694 36.8709ZM85.3145 33.222C86.4036 33.222 87.2832 32.8272 87.9534 32.0377C88.6236 31.2482 88.9586 30.0319 88.9586 28.3888C88.9586 26.7457 88.6236 25.5401 87.9534 24.7719C87.2832 24.0037 86.4036 23.6196 85.3145 23.6196C84.2254 23.6196 83.3458 24.0037 82.6756 24.7719C82.0054 25.5401 81.6703 26.7457 81.6703 28.3888C81.6703 30.0319 81.995 31.2482 82.6442 32.0377C83.3144 32.8272 84.2045 33.222 85.3145 33.222Z" fill="#242424" />
    <path d="M103.719 36.8709C102.336 36.8709 101.122 36.5295 100.074 35.8467C99.0273 35.1638 98.2105 34.1929 97.6241 32.9339C97.0376 31.675 96.7444 30.1599 96.7444 28.3888C96.7444 26.639 97.0376 25.1346 97.6241 23.8756C98.2105 22.6167 99.0273 21.6564 100.074 20.9949C101.122 20.3121 102.336 19.9707 103.719 19.9707C104.996 19.9707 106.138 20.2907 107.143 20.9309C108.169 21.5497 108.839 22.3926 109.153 23.4595H108.808L109.185 20.2907H113.74C113.677 20.9949 113.614 21.7098 113.552 22.4353C113.51 23.1395 113.489 23.833 113.489 24.5158V36.5189H108.776L108.745 33.4781H109.122C108.787 34.5023 108.117 35.3239 107.111 35.9427C106.106 36.5615 104.975 36.8709 103.719 36.8709ZM105.164 33.222C106.253 33.222 107.132 32.8272 107.803 32.0377C108.473 31.2482 108.808 30.0319 108.808 28.3888C108.808 26.7457 108.473 25.5401 107.803 24.7719C107.132 24.0037 106.253 23.6196 105.164 23.6196C104.075 23.6196 103.195 24.0037 102.525 24.7719C101.855 25.5401 101.52 26.7457 101.52 28.3888C101.52 30.0319 101.844 31.2482 102.493 32.0377C103.164 32.8272 104.054 33.222 105.164 33.222Z" fill="#242424" />
    <path d="M121.844 36.5189L114.964 20.2907H119.959L124.514 32.0697H123.477L128.189 20.2907H132.87L125.928 36.5189H121.844Z" fill="#242424" />
    <path d="M141.7 36.8709C140.004 36.8709 138.527 36.5295 137.27 35.8467C136.035 35.1425 135.071 34.1609 134.38 32.9019C133.71 31.6429 133.375 30.1386 133.375 28.3888C133.375 26.6604 133.71 25.1666 134.38 23.9077C135.071 22.6487 136.035 21.6778 137.27 20.9949C138.527 20.3121 140.004 19.9707 141.7 19.9707C143.396 19.9707 144.873 20.3121 146.129 20.9949C147.386 21.6778 148.349 22.6487 149.02 23.9077C149.711 25.1666 150.056 26.6604 150.056 28.3888C150.056 30.1386 149.711 31.6429 149.02 32.9019C148.349 34.1609 147.386 35.1425 146.129 35.8467C144.873 36.5295 143.396 36.8709 141.7 36.8709ZM141.7 33.222C142.789 33.222 143.648 32.8272 144.276 32.0377C144.925 31.2482 145.25 30.0319 145.25 28.3888C145.25 26.7457 144.925 25.5401 144.276 24.7719C143.648 24.0037 142.789 23.6196 141.7 23.6196C140.611 23.6196 139.742 24.0037 139.092 24.7719C138.464 25.5401 138.15 26.7457 138.15 28.3888C138.15 30.0319 138.464 31.2482 139.092 32.0377C139.742 32.8272 140.611 33.222 141.7 33.222Z" fill="#242424" />
    <path d="M158.994 36.8709C157.57 36.8709 156.272 36.7109 155.099 36.3908C153.926 36.0707 152.931 35.6226 152.115 35.0465L153.34 31.8457C154.157 32.3578 155.057 32.7632 156.041 33.062C157.047 33.3607 158.042 33.5101 159.026 33.5101C159.947 33.5101 160.628 33.3607 161.068 33.062C161.508 32.7632 161.728 32.3578 161.728 31.8457C161.728 31.4189 161.581 31.0881 161.288 30.8534C161.015 30.6187 160.586 30.448 160 30.3413L156.764 29.7331C155.403 29.4557 154.366 28.9436 153.654 28.1967C152.942 27.4499 152.586 26.479 152.586 25.284C152.586 24.2384 152.858 23.3208 153.403 22.5313C153.968 21.7204 154.774 21.0909 155.822 20.6428C156.869 20.1947 158.094 19.9707 159.497 19.9707C160.691 19.9707 161.822 20.12 162.89 20.4188C163.958 20.7175 164.869 21.1763 165.623 21.7951L164.335 24.8999C163.686 24.4091 162.932 24.0143 162.073 23.7156C161.235 23.4169 160.429 23.2675 159.654 23.2675C158.649 23.2675 157.926 23.4382 157.487 23.7796C157.047 24.0997 156.827 24.5158 156.827 25.0279C156.827 25.412 156.952 25.7321 157.204 25.9882C157.476 26.2442 157.884 26.4363 158.429 26.5643L161.696 27.1725C163.099 27.4285 164.167 27.9087 164.9 28.6128C165.633 29.317 166 30.2879 166 31.5256C166 32.6565 165.707 33.6168 165.12 34.4063C164.534 35.1959 163.707 35.804 162.639 36.2308C161.591 36.6576 160.377 36.8709 158.994 36.8709Z" fill="#242424" />
    <defs>
        <linearGradient id="paint0_linear_2358_8384" x1="16.8032" y1="-1.21805" x2="31.6598" y2="41.4099" gradientUnits="userSpaceOnUse">
            <stop stop-color="#F5B75E" />
            <stop offset="1" stop-color="#FF9600" />
        </linearGradient>
        <linearGradient id="paint1_linear_2358_8384" x1="16.8032" y1="-1.21805" x2="31.6598" y2="41.4099" gradientUnits="userSpaceOnUse">
            <stop stop-color="#F5B75E" />
            <stop offset="1" stop-color="#FF9600" />
        </linearGradient>
        <linearGradient id="paint2_linear_2358_8384" x1="16.8032" y1="-1.21805" x2="31.6598" y2="41.4099" gradientUnits="userSpaceOnUse">
            <stop stop-color="#F5B75E" />
            <stop offset="1" stop-color="#FF9600" />
        </linearGradient>
    </defs>
</svg>