<svg width="37" height="37" viewBox="0 0 37 37" fill="none" xmlns="http://www.w3.org/2000/svg">
<path fill-rule="evenodd" clip-rule="evenodd" d="M18.1339 0.679688C8.1188 0.679688 0 8.79849 0 18.8135C0 28.8286 8.1188 36.9474 18.1339 36.9474C28.1489 36.9474 36.2677 28.8286 36.2677 18.8135C36.2677 8.79849 28.1489 0.679688 18.1339 0.679688ZM26.061 25.4663C26.9646 26.7438 27.8675 28.0206 28.7691 29.2994L28.7677 29.2987C28.7983 29.3418 28.8216 29.3896 28.85 29.4481C28.865 29.4789 28.8814 29.5126 28.9011 29.5503C28.8549 29.5537 28.8137 29.5575 28.7758 29.5609C28.7017 29.5676 28.6402 29.5732 28.5785 29.5732C27.8942 29.5741 27.21 29.5747 26.5257 29.5752C25.2938 29.5761 24.0619 29.577 22.83 29.5803C22.6138 29.5809 22.4745 29.5171 22.3444 29.3326C20.8794 27.2486 19.4077 25.1691 17.936 23.0896C17.5574 22.5546 17.1787 22.0195 16.8002 21.4844C16.772 21.4443 16.7426 21.4054 16.706 21.3568C16.6872 21.3319 16.6665 21.3045 16.6431 21.2731C16.6166 21.2966 16.5905 21.318 16.5653 21.3388C16.5157 21.3796 16.4697 21.4174 16.4309 21.4615C15.8803 22.0822 15.3284 22.702 14.7764 23.3217C13.1912 25.1016 11.6057 26.8817 10.0529 28.6877C9.49561 29.3364 8.7846 29.5796 8.04468 29.5796C7.95686 29.5796 7.86794 29.5786 7.7715 29.5774C7.65721 29.576 7.53236 29.5745 7.38624 29.5745C7.41666 29.531 7.44182 29.4931 7.46419 29.4594C7.50516 29.3978 7.53678 29.3502 7.57418 29.3077C8.39608 28.3777 9.21864 27.4481 10.0412 26.5186C10.8641 25.5887 11.687 24.6589 12.5092 23.7285C12.8418 23.3521 13.1736 22.975 13.5055 22.5978C14.203 21.8052 14.9007 21.0124 15.6055 20.2255C15.7481 20.0659 15.7291 19.9593 15.6239 19.8111C14.5564 18.3031 13.4897 16.7943 12.4229 15.2854C11.8566 14.4844 11.2903 13.6833 10.7238 12.8824C10.3189 12.31 9.91376 11.7379 9.50868 11.1659C8.83564 10.2155 8.16267 9.26514 7.49073 8.31381C7.46097 8.27149 7.43998 8.22311 7.41402 8.16327C7.40043 8.13194 7.38548 8.09747 7.36719 8.05908H7.86463C8.24982 8.05921 8.63498 8.05951 9.02012 8.0598C10.4964 8.06094 11.9724 8.06207 13.4489 8.05397C13.69 8.05269 13.8241 8.13952 13.9535 8.32338C15.6988 10.8029 17.4506 13.2787 19.2025 15.7544L19.2026 15.7546C19.2301 15.7931 19.2629 15.8279 19.3036 15.8709C19.3243 15.8929 19.3471 15.917 19.3722 15.9449C19.4367 15.8759 19.5001 15.8091 19.5623 15.7435C19.6971 15.6014 19.8266 15.465 19.9511 15.3243C20.2074 15.0344 20.4638 14.7445 20.7201 14.4546C22.4997 12.442 24.279 10.4297 26.0492 8.40957C26.274 8.15293 26.498 8.02205 26.8555 8.05078C27.1525 8.07453 27.4519 8.0695 27.7751 8.06406C27.9211 8.06161 28.0719 8.05908 28.2296 8.05908C28.1972 8.10487 28.1707 8.14433 28.1473 8.17915C28.1051 8.24191 28.0731 8.28962 28.035 8.33232C25.4939 11.2046 22.9529 14.0762 20.4072 16.9446C20.2665 17.103 20.2225 17.2185 20.3598 17.412C21.8645 19.5291 23.3635 21.6499 24.8625 23.7708C25.262 24.3359 25.6615 24.9011 26.061 25.4663ZM24.9613 28.2374C25.1115 28.2382 25.2617 28.2391 25.4118 28.2389L25.4125 28.2377H26.3278C26.2898 28.1797 26.2579 28.1302 26.2296 28.0863C26.1787 28.0072 26.1394 27.9463 26.0972 27.8872C25.6417 27.2537 25.1859 26.6204 24.7302 25.9872C24.1406 25.168 23.551 24.3489 22.9621 23.5293C22.0871 22.3113 21.2127 21.0929 20.3382 19.8744C19.3206 18.4565 18.303 17.0386 17.2845 15.6212C16.7801 14.9195 16.275 14.2184 15.7699 13.5173C14.859 12.2528 13.9482 10.9885 13.0415 9.72153C12.9146 9.54532 12.7806 9.4719 12.5598 9.47446C12.0528 9.4807 11.5458 9.4788 11.0389 9.4769C10.7684 9.47589 10.498 9.47487 10.2276 9.4751C10.181 9.4751 10.1341 9.48549 10.0798 9.49752C10.0522 9.50362 10.0227 9.51015 9.99043 9.51595C10.0093 9.54876 10.0259 9.57915 10.0414 9.60763C10.0724 9.66448 10.0993 9.71368 10.1317 9.75919C10.917 10.8579 11.7022 11.956 12.4908 13.0522C13.6607 14.6778 14.8311 16.3029 16.0014 17.928C17.3737 19.8334 18.7459 21.7387 20.1174 23.6449C21.1497 25.08 22.1814 26.5158 23.2045 27.9574C23.3576 28.1738 23.5311 28.2594 23.8025 28.2485C24.1882 28.2329 24.5748 28.2351 24.9613 28.2374Z" fill="white"/>
</svg>
