<svg width="40" height="40" viewBox="0 0 40 40" fill="none" xmlns="http://www.w3.org/2000/svg">
<path fill-rule="evenodd" clip-rule="evenodd" d="M39.3869 19.8171C39.3869 30.572 30.6684 39.2905 19.9135 39.2905C9.15862 39.2905 0.440063 30.572 0.440063 19.8171C0.440063 9.06227 9.15862 0.34375 19.9135 0.34375C30.6684 0.34375 39.3869 9.06227 39.3869 19.8171ZM20.6115 14.7117C18.7172 15.5037 14.932 17.1367 9.25567 19.6107C8.33303 19.9781 7.8513 20.3316 7.81048 20.6713C7.73493 21.2649 8.47536 21.4971 9.49039 21.8154C9.62724 21.8583 9.76908 21.9028 9.91459 21.9499C10.9091 22.2732 12.2465 22.6505 12.9422 22.6652C13.5725 22.6799 14.2763 22.4202 15.0536 21.8862C20.3576 18.3067 23.0953 16.4974 23.2668 16.4582C23.3325 16.4324 23.4033 16.4226 23.4735 16.4294C23.5438 16.4362 23.6114 16.4595 23.6709 16.4974C23.712 16.5439 23.7415 16.5993 23.7573 16.6593C23.773 16.7193 23.7745 16.7821 23.7616 16.8427C23.6872 17.1551 20.7995 19.8405 19.2863 21.2477C18.8057 21.6946 18.4638 22.0126 18.3947 22.0846C18.2407 22.2452 18.0837 22.3969 17.933 22.5425C17.0118 23.4324 16.3235 24.0974 17.9759 25.1857C18.7646 25.7061 19.397 26.1367 20.0267 26.5656C20.7248 27.0411 21.4198 27.5144 22.3213 28.1055C22.5464 28.254 22.7615 28.408 22.971 28.5579C23.7803 29.1373 24.5062 29.6569 25.4052 29.5751C25.9244 29.5384 26.4633 29.0485 26.7352 27.5788C27.3794 24.1299 28.6458 16.6566 28.9398 13.5776C28.9579 13.3216 28.9472 13.0645 28.9079 12.8109C28.8848 12.6069 28.786 12.419 28.6311 12.2843C28.4096 12.1318 28.1456 12.053 27.8767 12.0589C27.1443 12.0712 26.02 12.4631 20.6115 14.7117Z" fill="white"/>
</svg>
