<svg width="40" height="40" viewBox="0 0 40 40" fill="none" xmlns="http://www.w3.org/2000/svg">
<g clip-path="url(#clip0_1620_4093)">
<path d="M20.032 39.4194C30.7869 39.4194 39.5055 30.7009 39.5055 19.946C39.5055 9.19118 30.7869 0.472656 20.032 0.472656C9.27715 0.472656 0.558594 9.19118 0.558594 19.946C0.558594 30.7009 9.27715 39.4194 20.032 39.4194Z" fill="#242424"/>
<path d="M9.37237 19.7396C15.0487 17.2656 18.8339 15.6326 20.7282 14.8406C26.1367 12.592 27.261 12.2001 27.9934 12.1878C28.2623 12.1819 28.5263 12.2607 28.7478 12.4132C28.9027 12.5479 29.0015 12.7358 29.0246 12.9398C29.0639 13.1934 29.0746 13.4505 29.0565 13.7065C28.7625 16.7855 27.4961 24.2589 26.8519 27.7077C26.58 29.1774 26.0411 29.6673 25.5219 29.7041C24.3902 29.8069 23.5329 28.957 22.438 28.2344C20.7233 27.1101 19.7558 26.4119 18.0926 25.3146C16.1697 24.0482 17.4165 23.355 18.5114 22.2135C18.798 21.9147 23.7803 17.3832 23.8783 16.9716C23.8912 16.911 23.8897 16.8482 23.874 16.7882C23.8582 16.7282 23.8287 16.6728 23.7876 16.6263C23.7281 16.5884 23.6605 16.5651 23.5902 16.5583C23.52 16.5515 23.4492 16.5613 23.3835 16.5871C23.212 16.6263 20.4743 18.4356 15.1703 22.0151C14.393 22.5491 13.6892 22.8088 13.0589 22.7941C12.3632 22.7794 11.0258 22.4022 10.0313 22.0788C8.80654 21.682 7.84144 21.4738 7.92718 20.8002C7.968 20.4605 8.44973 20.107 9.37237 19.7396Z" fill="white"/>
</g>
<defs>
<clipPath id="clip0_1620_4093">
<rect width="38.9469" height="38.9467" fill="white" transform="translate(0.558594 0.472656)"/>
</clipPath>
</defs>
</svg>
