<svg width="40" height="40" viewBox="0 0 40 40" fill="none" xmlns="http://www.w3.org/2000/svg">
<path fill-rule="evenodd" clip-rule="evenodd" d="M19.975 39.2898C30.7307 39.2898 39.45 30.5706 39.45 19.8148C39.45 9.0591 30.7307 0.339844 19.975 0.339844C9.21925 0.339844 0.5 9.0591 0.5 19.8148C0.5 30.5706 9.21925 39.2898 19.975 39.2898ZM32.6049 30.4434H27.8257V22.3034C27.8257 20.0717 26.9777 18.8245 25.2113 18.8245C23.2896 18.8245 22.2856 20.1224 22.2856 22.3034V30.4434H17.6798V14.9369H22.2856V17.0256C22.2856 17.0256 23.6704 14.4631 26.961 14.4631C30.2501 14.4631 32.6049 16.4716 32.6049 20.6256V30.4434ZM12.1851 12.9064C10.6162 12.9064 9.34497 11.6252 9.34497 10.045C9.34497 8.46483 10.6162 7.18359 12.1851 7.18359C13.7539 7.18359 15.0244 8.46483 15.0244 10.045C15.0244 11.6252 13.7539 12.9064 12.1851 12.9064ZM9.80684 30.4434H14.6095V14.9369H9.80684V30.4434Z" fill="white"/>
</svg>
