<svg width="37" height="37" viewBox="0 0 37 37" fill="none" xmlns="http://www.w3.org/2000/svg">
<path fill-rule="evenodd" clip-rule="evenodd" d="M18.4932 0.683594C8.47818 0.683594 0.359375 8.8024 0.359375 18.8174C0.359375 28.8325 8.47818 36.9513 18.4932 36.9513C28.5083 36.9513 36.6271 28.8325 36.6271 18.8174C36.6271 8.8024 28.5083 0.683594 18.4932 0.683594ZM26.4204 25.4702C27.324 26.7477 28.2269 28.0245 29.1284 29.3033L29.1271 29.3026C29.1577 29.3457 29.1809 29.3935 29.2094 29.452C29.2244 29.4828 29.2408 29.5166 29.2605 29.5542C29.2143 29.5576 29.1731 29.5614 29.1352 29.5648C29.0611 29.5716 28.9996 29.5771 28.9379 29.5771C28.2536 29.5781 27.5693 29.5786 26.8851 29.5791C25.6532 29.58 24.4213 29.5809 23.1893 29.5842C22.9732 29.5848 22.8338 29.521 22.7037 29.3365C21.2387 27.2525 19.7671 25.173 18.2954 23.0935C17.9167 22.5585 17.5381 22.0235 17.1596 21.4883C17.1313 21.4482 17.1019 21.4093 17.0653 21.3607C17.0466 21.3358 17.0259 21.3084 17.0025 21.277C16.976 21.3005 16.9499 21.3219 16.9247 21.3427C16.8751 21.3835 16.8291 21.4213 16.7903 21.4654C16.2397 22.0862 15.6878 22.7059 15.1358 23.3256C13.5505 25.1055 11.9651 26.8856 10.4122 28.6917C9.85499 29.3403 9.14398 29.5835 8.40406 29.5835C8.31624 29.5835 8.22732 29.5825 8.13087 29.5813C8.01659 29.5799 7.89173 29.5784 7.74562 29.5784C7.77603 29.5349 7.80119 29.497 7.82357 29.4633C7.86453 29.4017 7.89616 29.3541 7.93356 29.3116C8.75546 28.3816 9.57802 27.452 10.4006 26.5225C11.2235 25.5926 12.0463 24.6628 12.8686 23.7324C13.2012 23.356 13.533 22.9789 13.8649 22.6017C14.5624 21.8091 15.26 21.0163 15.9649 20.2294C16.1075 20.0698 16.0885 19.9632 15.9833 19.815C14.9158 18.3071 13.8491 16.7982 12.7823 15.2893C12.216 14.4883 11.6496 13.6872 11.0832 12.8863C10.6782 12.3139 10.2731 11.7418 9.86805 11.1698C9.19502 10.2194 8.52205 9.26905 7.8501 8.31771C7.82034 8.27539 7.79936 8.22702 7.7734 8.16718C7.75981 8.13585 7.74485 8.10138 7.72656 8.06298H8.22401C8.60919 8.06312 8.99435 8.06341 9.37949 8.06371C10.8558 8.06484 12.3318 8.06598 13.8082 8.05788C14.0494 8.0566 14.1835 8.14343 14.3129 8.32729C16.0582 10.8068 17.81 13.2826 19.5619 15.7583L19.562 15.7585C19.5894 15.797 19.6223 15.8318 19.663 15.8749C19.6837 15.8968 19.7065 15.9209 19.7316 15.9488C19.7961 15.8798 19.8594 15.813 19.9217 15.7475C20.0565 15.6053 20.1859 15.4689 20.3105 15.3282C20.5668 15.0383 20.8231 14.7484 21.0795 14.4585C22.859 12.4459 24.6383 10.4336 26.4086 8.41348C26.6333 8.15683 26.8574 8.02596 27.2149 8.05468C27.5118 8.07843 27.8113 8.0734 28.1345 8.06797C28.2804 8.06552 28.4313 8.06298 28.5889 8.06298C28.5566 8.10878 28.5301 8.14824 28.5067 8.18306C28.4645 8.24581 28.4325 8.29353 28.3944 8.33623C25.8533 11.2085 23.3122 14.0801 20.7665 16.9485C20.6259 17.1069 20.5819 17.2224 20.7192 17.4159C22.2239 19.533 23.7228 21.6538 25.2219 23.7747C25.6213 24.3398 26.0208 24.905 26.4204 25.4702ZM25.3206 28.2413C25.4709 28.2421 25.6211 28.243 25.7712 28.2428L25.7718 28.2416H26.6872C26.6492 28.1836 26.6173 28.1341 26.589 28.0902C26.5381 28.0111 26.4988 27.9502 26.4566 27.8911C26.001 27.2576 25.5453 26.6243 25.0895 25.9911C24.4999 25.1719 23.9104 24.3528 23.3214 23.5332C22.4464 22.3152 21.572 21.0968 20.6976 19.8783C19.68 18.4604 18.6624 17.0425 17.6439 15.6251C17.1394 14.9234 16.6343 14.2223 16.1293 13.5212C15.2184 12.2567 14.3076 10.9924 13.4008 9.72543C13.274 9.54923 13.1399 9.47581 12.9192 9.47836C12.4122 9.48461 11.9052 9.48271 11.3982 9.48081C11.1278 9.47979 10.8574 9.47878 10.587 9.479C10.5404 9.479 10.4935 9.4894 10.4391 9.50143C10.4116 9.50753 10.3821 9.51406 10.3498 9.51986C10.3687 9.55267 10.3852 9.58306 10.4008 9.61153C10.4318 9.66838 10.4587 9.71758 10.4911 9.7631C11.2763 10.8618 12.0616 11.9599 12.8502 13.0561C14.0201 14.6817 15.1905 16.3068 16.3608 17.9319C17.7331 19.8373 19.1053 21.7427 20.4767 23.6488C21.5091 25.0839 22.5408 26.5197 23.5639 27.9613C23.717 28.1777 23.8905 28.2633 24.1619 28.2524C24.5475 28.2368 24.9342 28.239 25.3206 28.2413Z" fill="#242424"/>
</svg>
