<svg width="40" height="40" viewBox="0 0 40 40" fill="none" xmlns="http://www.w3.org/2000/svg">
<g clip-path="url(#clip0_1620_4096)">
<path fill-rule="evenodd" clip-rule="evenodd" d="M4.38993 39.4233H34.6819C37.0719 39.4233 39.0094 37.4858 39.0094 35.0959V4.80398C39.0094 2.41401 37.0719 0.476562 34.6819 0.476562H4.38993C1.99996 0.476563 0.0625 2.41401 0.0625 4.80398V35.0959C0.0625 37.4858 1.99996 39.4233 4.38993 39.4233Z" fill="#242424"/>
<path fill-rule="evenodd" clip-rule="evenodd" d="M31.4396 31.3067H26.6604V23.1667C26.6604 20.935 25.8124 19.6878 24.046 19.6878C22.1243 19.6878 21.1203 20.9857 21.1203 23.1667V31.3067H16.5145V15.8002H21.1203V17.8889C21.1203 17.8889 22.5051 15.3264 25.7958 15.3264C29.0849 15.3264 31.4396 17.3349 31.4396 21.4889V31.3067ZM11.0198 13.7697C9.45096 13.7697 8.17969 12.4885 8.17969 10.9083C8.17969 9.32812 9.45096 8.04688 11.0198 8.04688C12.5886 8.04688 13.8591 9.32812 13.8591 10.9083C13.8591 12.4885 12.5886 13.7697 11.0198 13.7697ZM8.64155 31.3067H13.4442V15.8002H8.64155V31.3067Z" fill="white"/>
</g>
<defs>
<clipPath id="clip0_1620_4096">
<rect x="0.0585938" y="0.472656" width="38.9469" height="38.9467" rx="19.4734" fill="white"/>
</clipPath>
</defs>
</svg>
