<svg width="79" height="60" viewBox="0 0 79 60" fill="none" xmlns="http://www.w3.org/2000/svg">
<path d="M66.6308 5.46507C61.5061 3.11887 56.0961 1.45439 50.5388 0.51416C49.7784 1.87359 49.0903 3.27227 48.4775 4.70434C42.5579 3.81232 36.5381 3.81232 30.6186 4.70434C30.0055 3.27242 29.3174 1.87376 28.5573 0.51416C22.9965 1.46233 17.5828 3.13076 12.453 5.47734C2.26897 20.5448 -0.491763 35.238 0.888602 49.7226C6.85262 54.1291 13.5281 57.4803 20.6248 59.6306C22.2227 57.4814 23.6367 55.2014 24.8517 52.8147C22.544 51.9527 20.3166 50.8893 18.1953 49.6368C18.7536 49.2318 19.2996 48.8147 19.8272 48.4098C25.9996 51.3125 32.7364 52.8175 39.5572 52.8175C46.3781 52.8175 53.1149 51.3125 59.2873 48.4098C59.821 48.8453 60.367 49.2625 60.9192 49.6368C58.7938 50.8914 56.5623 51.9568 54.2505 52.8208C55.464 55.2064 56.8781 57.4845 58.4774 59.6306C65.5802 57.489 72.2608 54.1393 78.2259 49.7288C79.8455 32.9313 75.459 18.373 66.6308 5.46507ZM26.6002 40.8147C22.7536 40.8147 19.5757 37.3239 19.5757 33.0294C19.5757 28.735 22.6432 25.2135 26.5879 25.2135C30.5327 25.2135 33.6861 28.735 33.6186 33.0294C33.5511 37.3239 30.5204 40.8147 26.6002 40.8147ZM52.5143 40.8147C48.6615 40.8147 45.4959 37.3239 45.4959 33.0294C45.4959 28.735 48.5634 25.2135 52.5143 25.2135C56.4652 25.2135 59.594 28.735 59.5265 33.0294C59.459 37.3239 56.4345 40.8147 52.5143 40.8147Z" fill="#587EFF"/>
</svg>
