<svg width="24" height="25" viewBox="0 0 24 25" fill="none" xmlns="http://www.w3.org/2000/svg">
<g clip-path="url(#clip0_3453_9069)">
<path fill-rule="evenodd" clip-rule="evenodd" d="M7 7.68115V10.0562H6.6875C6.10734 10.0562 5.55094 10.2751 5.1407 10.6648C4.73046 11.0545 4.5 11.5831 4.5 12.1343V18.6655C4.5 19.8127 5.48 20.7437 6.6875 20.7437H17.3125C17.8926 20.7437 18.449 20.5247 18.8593 20.1349C19.2695 19.7452 19.5 19.2166 19.5 18.6655V12.1343C19.5 11.5831 19.2695 11.0545 18.8593 10.6648C18.449 10.2751 17.8926 10.0562 17.3125 10.0562H17V7.68115C17 6.42137 16.4732 5.21319 15.5355 4.32239C14.5979 3.4316 13.3261 2.93115 12 2.93115C10.6739 2.93115 9.40215 3.4316 8.46446 4.32239C7.52679 5.21319 7 6.42137 7 7.68115ZM15.125 10.0562V7.68115C15.125 6.89379 14.7957 6.13867 14.2097 5.58193C13.6237 5.02518 12.8288 4.7124 12 4.7124C11.1712 4.7124 10.3763 5.02518 9.79029 5.58193C9.20424 6.13867 8.875 6.89379 8.875 7.68115V10.0562H15.125ZM17 11.8374H17.3125C17.3954 11.8374 17.4749 11.8687 17.5335 11.9244C17.5921 11.98 17.625 12.0555 17.625 12.1343V18.6655C17.625 18.7443 17.5921 18.8198 17.5335 18.8755C17.4749 18.9312 17.3954 18.9624 17.3125 18.9624H6.6875C6.60462 18.9624 6.52514 18.9312 6.46653 18.8755C6.40793 18.8198 6.375 18.7443 6.375 18.6655V12.1343C6.375 12.0555 6.40793 11.98 6.46653 11.9244C6.52514 11.8687 6.60462 11.8374 6.6875 11.8374H17Z" fill="white"/>
</g>
<defs>
<clipPath id="clip0_3453_9069">
<rect width="20" height="19" fill="white" transform="translate(2 2.93115)"/>
</clipPath>
</defs>
</svg>
