<svg width="76" height="45" viewBox="0 0 76 45" fill="none" xmlns="http://www.w3.org/2000/svg">
<path opacity="0.45" d="M0.119142 44.1846C1.23242 39.4385 2.375 34.458 3.54688 29.2432C4.66016 24.0283 5.68555 18.9014 6.62305 13.8623C7.56055 8.88183 8.35157 4.31152 8.9961 0.151361L33.6055 0.151363L34.8359 2.08496C33.7813 6.3623 32.4336 10.9033 30.793 15.708C29.0938 20.5713 27.2773 25.4346 25.3438 30.2978C23.3516 35.2197 21.3594 39.8486 19.3672 44.1846L0.119142 44.1846ZM41.1641 44.1846C42.2773 39.4385 43.4199 34.458 44.5918 29.2432C45.7051 24.0283 46.7305 18.9014 47.668 13.8623C48.6055 8.88183 49.3965 4.31152 50.041 0.151365L74.6504 0.151367L75.8809 2.08496C74.8262 6.3623 73.4785 10.9033 71.8379 15.708C70.1387 20.5713 68.3223 25.4346 66.3887 30.2979C64.3965 35.2197 62.4043 39.8486 60.4121 44.1846L41.1641 44.1846Z" fill="white"/>
</svg>
