<svg width="76" height="45" viewBox="0 0 76 45" fill="none" xmlns="http://www.w3.org/2000/svg">
<path opacity="0.45" d="M75.8809 0.192383C74.7676 4.93848 73.625 9.91895 72.4531 15.1338C71.3398 20.3486 70.3145 25.4756 69.377 30.5146C68.4395 35.4951 67.6484 40.0654 67.0039 44.2256H42.3945L41.1641 42.292C42.2188 38.0146 43.5664 33.4736 45.207 28.6689C46.9062 23.8057 48.7227 18.9424 50.6562 14.0791C52.6484 9.15723 54.6406 4.52832 56.6328 0.192383H75.8809ZM34.8359 0.192383C33.7227 4.93848 32.5801 9.91895 31.4082 15.1338C30.2949 20.3486 29.2695 25.4756 28.332 30.5146C27.3945 35.4951 26.6035 40.0654 25.959 44.2256H1.34961L0.119141 42.292C1.17383 38.0146 2.52148 33.4736 4.16211 28.6689C5.86133 23.8057 7.67773 18.9424 9.61133 14.0791C11.6035 9.15723 13.5957 4.52832 15.5879 0.192383H34.8359Z" fill="white"/>
</svg>
